<svg width="559" height="578" viewBox="0 0 559 578" fill="none" xmlns="http://www.w3.org/2000/svg">
<g clip-path="url(#clip0_2716_491)">
<path d="M30.0293 38.0947V264.085H186.974V38.0947H30.0293ZM181.372 258.484H35.6308V43.6447H181.372V258.484Z" fill="#EAF1FF"/>
<path d="M181.374 43.6953H35.6328V258.483H181.374V43.6953Z" fill="white"/>
<path d="M111.566 45.1514H105.965V261.278H111.566V45.1514Z" fill="#EAF1FF"/>
<path d="M24.9562 57.2041L192.061 57.2041V49.4135L24.9562 49.4135V57.2041Z" fill="#EAF1FF"/>
<path d="M24.9562 65.9727L192.061 65.9727V58.1821L24.9562 58.1821V65.9727Z" fill="#EAF1FF"/>
<path d="M24.9562 74.7549L192.061 74.7549V66.9643L24.9562 66.9643V74.7549Z" fill="#EAF1FF"/>
<path d="M24.9562 83.5244L192.061 83.5244V75.7339L24.9562 75.7339V83.5244Z" fill="#EAF1FF"/>
<path d="M24.9562 92.2939L192.061 92.2939V84.5034L24.9562 84.5034V92.2939Z" fill="#EAF1FF"/>
<path d="M24.9562 101.05L192.061 101.05V93.2592L24.9562 93.2592V101.05Z" fill="#EAF1FF"/>
<path d="M24.9562 109.832L192.061 109.832V102.041L24.9562 102.041V109.832Z" fill="#EAF1FF"/>
<path d="M24.9562 118.601L192.061 118.601V110.81L24.9562 110.81V118.601Z" fill="#EAF1FF"/>
<path d="M24.9562 127.371L192.061 127.371V119.581L24.9562 119.581V127.371Z" fill="#EAF1FF"/>
<path d="M42.9837 47.8291H41.5801V201.773H42.9837V47.8291Z" fill="#282828"/>
<path d="M39.8008 208.303H44.7713L43.5222 201.156H41.037L39.8008 208.303Z" fill="#282828"/>
<path d="M37.9485 47.8291H36.5449V256.281H37.9485V47.8291Z" fill="#282828"/>
<path d="M34.7539 261.535H39.7244L38.4753 254.389H36.003L34.7539 261.535Z" fill="#282828"/>
<path d="M16.2765 53.3145L200.752 53.3145V36.9993L16.2765 36.9993V53.3145Z" fill="#D8E1FF"/>
<path d="M558.938 40.7861H375.918V438.581H558.938V40.7861Z" fill="#EAF1FF"/>
<path d="M543.266 58.0156H391.588V316.508H543.266V58.0156Z" fill="white"/>
<path d="M401.285 473.427H389.193V438.582H410.711L401.285 473.427Z" fill="#EAF1FF"/>
<path d="M410.712 438.582L407.235 451.42H389.182V438.582H410.712Z" fill="#D7E5FF"/>
<path d="M533.584 473.427H545.676V438.582H524.158L533.584 473.427Z" fill="#EAF1FF"/>
<path d="M524.158 438.582L527.635 451.42H545.676V438.582H524.158Z" fill="#D7E5FF"/>
<path d="M543.268 345.069C531.911 345.314 520.541 345.443 509.183 345.533C497.826 345.623 486.455 345.636 475.098 345.7L475.716 345.082C475.716 350.787 475.716 356.504 475.716 362.221L475.639 379.361C475.523 390.795 475.407 402.217 475.111 413.652C474.814 402.217 474.699 390.795 474.583 379.361L474.467 362.221C474.467 356.504 474.467 350.787 474.467 345.082V344.451H475.085C486.442 344.451 497.813 344.451 509.17 344.619C520.528 344.786 531.911 344.837 543.268 345.069Z" fill="#D7E5FF"/>
<path d="M475.096 423.438C486.453 423.194 497.824 423.065 509.181 422.975C520.539 422.884 531.909 422.872 543.266 422.807L542.635 423.438C542.635 417.824 542.635 412.222 542.635 406.621L542.713 389.804C542.829 378.588 542.944 367.385 543.241 356.169C543.524 367.385 543.64 378.588 543.769 389.804L543.846 406.621C543.846 412.222 543.91 417.824 543.846 423.438V424.056H543.228C531.87 423.992 520.5 424.056 509.142 423.902C497.785 423.747 486.453 423.67 475.096 423.438Z" fill="#D7E5FF"/>
<path d="M482.733 392.933H487.896V373.154H482.733V392.933Z" fill="#D7E5FF"/>
<path d="M391.588 345.069C402.945 344.837 414.316 344.709 425.673 344.619C437.031 344.528 448.401 344.516 459.759 344.451H460.377V345.082C460.377 350.787 460.377 356.504 460.377 362.221L460.299 379.361C460.183 390.795 460.068 402.217 459.771 413.652C459.475 402.217 459.359 390.795 459.243 379.361L459.166 362.221C459.166 356.504 459.166 350.787 459.166 345.082L459.784 345.7C448.427 345.636 437.056 345.7 425.699 345.533C414.341 345.365 402.945 345.314 391.588 345.069Z" fill="#D7E5FF"/>
<path d="M459.759 423.438C448.402 423.67 437.032 423.799 425.674 423.902C414.317 424.005 402.946 423.992 391.589 424.056H390.971V423.438C390.971 417.824 390.971 412.222 390.971 406.621L391.048 389.804C391.164 378.588 391.293 367.385 391.576 356.169C391.859 367.385 391.988 378.588 392.104 389.804L392.181 406.621C392.181 412.222 392.246 417.824 392.181 423.438L391.563 422.807C402.921 422.872 414.291 422.807 425.648 422.975C437.006 423.142 448.402 423.194 459.759 423.438Z" fill="#D7E5FF"/>
<path d="M452.136 373.153H446.973V392.932H452.136V373.153Z" fill="#D7E5FF"/>
<path d="M543.266 128.233H391.588V130.59H543.266V128.233Z" fill="#D7E5FF"/>
<path d="M543.266 188.832H391.588V191.189H543.266V188.832Z" fill="#D7E5FF"/>
<path d="M543.266 249.432H391.588V251.788H543.266V249.432Z" fill="#D7E5FF"/>
<path d="M469.185 58.0156H465.695V316.508H469.185V58.0156Z" fill="#EAF1FF"/>
<path d="M472.547 188.832H490.523V158.919H472.547V188.832Z" fill="#EAF1FF"/>
<path d="M470.087 158.919H492.982V153.833H470.087V158.919Z" fill="#D8E1FF"/>
<path d="M474.865 183.951H488.219V165.498H474.865V183.951Z" fill="#D7E5FF"/>
<path d="M496.768 188.832H514.744V158.919H496.768V188.832Z" fill="#EAF1FF"/>
<path d="M494.308 158.919H517.203V153.833H494.308V158.919Z" fill="#D8E1FF"/>
<path d="M499.086 183.951H512.439V165.498H499.086V183.951Z" fill="#D7E5FF"/>
<path d="M520.991 188.832H538.967V158.919H520.991V188.832Z" fill="#EAF1FF"/>
<path d="M518.531 158.919H541.426V153.833H518.531V158.919Z" fill="#D8E1FF"/>
<path d="M523.309 183.951H536.662V165.498H523.309V183.951Z" fill="#D7E5FF"/>
<path d="M418.555 249.444H394.732V223.987C394.732 222.173 395.453 220.434 396.735 219.152C398.017 217.869 399.757 217.149 401.57 217.149H411.717C413.53 217.149 415.27 217.869 416.552 219.152C417.834 220.434 418.555 222.173 418.555 223.987V249.444Z" fill="#EAF1FF"/>
<path d="M399.741 217.24H413.545V213.944H399.741V217.24Z" fill="#EAF1FF"/>
<path d="M396.226 213.941H417.061V210.426H396.226V213.941Z" fill="#D8E1FF"/>
<path d="M398.557 242.401H418.555V224.966H398.557V242.401Z" fill="#D7E5FF"/>
<path d="M445.184 249.444H421.361V223.987C421.361 222.173 422.082 220.434 423.364 219.152C424.646 217.869 426.385 217.149 428.199 217.149H438.346C440.159 217.149 441.899 217.869 443.181 219.152C444.463 220.434 445.184 222.173 445.184 223.987V249.444Z" fill="#EAF1FF"/>
<path d="M426.372 217.24H440.176V213.944H426.372V217.24Z" fill="#EAF1FF"/>
<path d="M422.855 213.941H443.689V210.426H422.855V213.941Z" fill="#D8E1FF"/>
<path d="M425.172 242.401H445.17V224.966H425.172V242.401Z" fill="#D7E5FF"/>
<path d="M471.516 316.521H501.365V277.902H471.516V316.521Z" fill="#EAF1FF"/>
<path d="M471.516 277.903H501.364L495.647 270.035H477.246L471.516 277.903Z" fill="#EAF1FF"/>
<path d="M473.834 270.021H499.047V262.36H473.834V270.021Z" fill="#D7E5FF"/>
<path d="M475.779 303.85H501.365V286.491H475.779V303.85Z" fill="#D8E1FF"/>
<path d="M503.606 316.521H533.455V277.902H503.606V316.521Z" fill="#EAF1FF"/>
<path d="M503.605 277.903H533.454L527.724 270.035H509.336L503.605 277.903Z" fill="#EAF1FF"/>
<path d="M505.924 270.021H531.137V262.36H505.924V270.021Z" fill="#D7E5FF"/>
<path d="M507.869 303.85H533.455V286.491H507.869V303.85Z" fill="#D8E1FF"/>
<path d="M455.28 128.233H401.789C400.31 128.233 398.892 127.646 397.846 126.6C396.8 125.555 396.213 124.136 396.213 122.658C396.216 121.181 396.805 119.766 397.851 118.723C398.896 117.68 400.312 117.095 401.789 117.095H455.28C456.756 117.095 458.172 117.68 459.218 118.723C460.263 119.766 460.852 121.181 460.855 122.658C460.855 123.39 460.711 124.115 460.431 124.791C460.151 125.468 459.74 126.082 459.222 126.6C458.704 127.118 458.09 127.529 457.413 127.809C456.737 128.089 456.012 128.233 455.28 128.233Z" fill="#D8E1FF"/>
<path d="M455.28 116.361H401.789C401.057 116.363 400.332 116.22 399.656 115.941C398.979 115.663 398.365 115.253 397.847 114.736C397.329 114.22 396.918 113.606 396.638 112.93C396.357 112.254 396.213 111.53 396.213 110.798C396.213 109.32 396.8 107.901 397.846 106.856C398.892 105.81 400.31 105.223 401.789 105.223H455.28C456.758 105.223 458.177 105.81 459.222 106.856C460.268 107.901 460.855 109.32 460.855 110.798C460.855 111.53 460.711 112.254 460.431 112.93C460.15 113.606 459.739 114.22 459.221 114.736C458.703 115.253 458.089 115.663 457.412 115.941C456.736 116.22 456.011 116.363 455.28 116.361Z" fill="#D8E1FF"/>
<path d="M454.352 104.501H402.716C402.19 104.502 401.67 104.4 401.184 104.2C400.698 104 400.257 103.707 399.885 103.336C399.513 102.965 399.217 102.524 399.016 102.039C398.815 101.554 398.711 101.034 398.711 100.509C398.711 99.4465 399.133 98.4279 399.884 97.6769C400.635 96.9258 401.654 96.5039 402.716 96.5039H454.352C455.414 96.5039 456.433 96.9258 457.184 97.6769C457.935 98.4279 458.357 99.4465 458.357 100.509C458.357 101.034 458.253 101.554 458.052 102.039C457.851 102.524 457.555 102.965 457.183 103.336C456.811 103.707 456.37 104 455.884 104.2C455.398 104.4 454.878 104.502 454.352 104.501Z" fill="#EAF1FF"/>
<path d="M454.352 95.7954H402.716C401.654 95.7954 400.635 95.3735 399.884 94.6225C399.133 93.8715 398.711 92.8528 398.711 91.7907C398.711 91.2654 398.815 90.7453 399.016 90.2601C399.217 89.775 399.513 89.3343 399.885 88.9635C400.257 88.5926 400.698 88.2989 401.184 88.099C401.67 87.8992 402.19 87.7972 402.716 87.7988H454.352C454.878 87.7972 455.398 87.8992 455.884 88.099C456.37 88.2989 456.811 88.5926 457.183 88.9635C457.555 89.3343 457.851 89.775 458.052 90.2601C458.253 90.7453 458.357 91.2654 458.357 91.7907C458.357 92.8528 457.935 93.8715 457.184 94.6225C456.433 95.3735 455.414 95.7954 454.352 95.7954Z" fill="#EAF1FF"/>
<path d="M317.993 90.1671C326.168 70.1599 316.576 47.3138 296.569 39.1389C276.561 30.9639 253.715 40.5558 245.54 60.5629C237.365 80.5701 246.957 103.416 266.964 111.591C286.972 119.766 309.818 110.174 317.993 90.1671Z" fill="#EAF1FF"/>
<path d="M301.164 108.509C318.684 97.8185 324.221 74.949 313.531 57.4284C302.841 39.9078 279.971 34.3708 262.45 45.0613C244.93 55.7517 239.393 78.6212 250.083 96.1418C260.774 113.662 283.643 119.199 301.164 108.509Z" fill="#D8E1FF"/>
<path d="M300.579 106.174C316.783 95.8191 321.525 74.2887 311.17 58.0846C300.815 41.8804 279.285 37.1388 263.08 47.4938C246.876 57.8488 242.135 79.3792 252.49 95.5833C262.845 111.787 284.375 116.529 300.579 106.174Z" fill="white"/>
<path opacity="0.5" d="M315.834 69.3984C299.983 79.0046 273.92 94.766 259.356 103.406C255.241 99.9345 251.984 95.5583 249.84 90.6197L298.051 46.001C302.541 48.3695 306.459 51.6908 309.531 55.7324C312.603 59.774 314.754 64.4382 315.834 69.3984Z" fill="#EAF1FF"/>
<path opacity="0.5" d="M316.606 78.0381C316.473 81.9088 315.694 85.7301 314.301 89.3441L270.867 109.947C268.977 109.324 267.146 108.535 265.395 107.591C278.503 99.9418 302.48 86.1377 316.606 78.0381Z" fill="#EAF1FF"/>
<path d="M282.148 44.5195H281.479V49.7991H282.148V44.5195Z" fill="#D7E5FF"/>
<path d="M265.953 48.674L265.373 49.0088L268.013 53.581L268.593 53.2462L265.953 48.674Z" fill="#D7E5FF"/>
<path d="M254.001 60.3615L253.666 60.9414L258.238 63.5812L258.573 63.0013L254.001 60.3615Z" fill="#D7E5FF"/>
<path d="M254.797 76.4814H249.518V77.151H254.797V76.4814Z" fill="#D7E5FF"/>
<path d="M258.252 90.0555L253.68 92.6953L254.014 93.2752L258.587 90.6354L258.252 90.0555Z" fill="#D7E5FF"/>
<path d="M268.003 100.034L265.365 104.607L265.945 104.942L268.583 100.368L268.003 100.034Z" fill="#D7E5FF"/>
<path d="M282.148 103.832H281.479V109.112H282.148V103.832Z" fill="#D7E5FF"/>
<path d="M295.607 100.054L295.027 100.389L297.667 104.961L298.247 104.626L295.607 100.054Z" fill="#D7E5FF"/>
<path d="M305.366 90.0168L305.031 90.5967L309.603 93.2365L309.938 92.6566L305.366 90.0168Z" fill="#D7E5FF"/>
<path d="M314.11 76.4814H308.83V77.151H314.11V76.4814Z" fill="#D7E5FF"/>
<path d="M309.611 60.3897L305.039 63.0303L305.374 63.6101L309.946 60.9695L309.611 60.3897Z" fill="#D7E5FF"/>
<path d="M297.68 48.7018L295.043 53.2754L295.623 53.6099L298.26 49.0363L297.68 48.7018Z" fill="#D7E5FF"/>
<path d="M282.315 46.9152L283.461 79.172L280.164 79.1334L281.426 46.9023L282.315 46.9152Z" fill="#D7E5FF"/>
<path d="M302.403 65.5738L280.706 79.4165L279.135 76.5192L301.978 64.7754L302.403 65.5738Z" fill="#85A3FF"/>
<path d="M282.934 76.8147C282.937 77.0399 282.872 77.2607 282.749 77.4491C282.625 77.6374 282.448 77.7846 282.241 77.872C282.033 77.9593 281.804 77.9828 281.583 77.9395C281.362 77.8962 281.159 77.788 281 77.6288C280.841 77.4695 280.732 77.2664 280.689 77.0454C280.646 76.8244 280.669 76.5955 280.757 76.388C280.844 76.1804 280.991 76.0035 281.18 75.88C281.368 75.7565 281.589 75.6919 281.814 75.6944C281.961 75.6944 282.107 75.7234 282.243 75.7797C282.379 75.836 282.502 75.9185 282.606 76.0225C282.71 76.1266 282.793 76.2501 282.849 76.386C282.905 76.5219 282.934 76.6676 282.934 76.8147Z" fill="#D7E5FF"/>
<path d="M280.023 578.001C428.104 578.001 548.147 560.895 548.147 539.795C548.147 518.694 428.104 501.589 280.023 501.589C131.942 501.589 11.8984 518.694 11.8984 539.795C11.8984 560.895 131.942 578.001 280.023 578.001Z" fill="#EAF1FF"/>
<path d="M1.10742 473.465L70.8491 473.156L140.578 473.04L280.035 472.821L419.48 473.04L489.209 473.156L558.938 473.465L489.209 473.787L419.48 473.903L280.035 474.109L140.578 473.903L70.8491 473.787L1.10742 473.465Z" fill="#282828"/>
<path d="M355.505 290.74H-0.00195312V299.097H355.505V290.74Z" fill="#5774CD"/>
<path d="M340.684 299.098H14.832V529.814H340.684V299.098Z" fill="#85A3FF"/>
<path d="M340.671 299.11H14.832V320.37H340.671V299.11Z" fill="#282828"/>
<path d="M187.64 370.243H167.848V443.114H187.64V370.243Z" fill="white"/>
<path d="M214.18 416.573V396.781H141.309V416.573H214.18Z" fill="white"/>
<path d="M244.62 464.597C240.32 467.764 240.036 460.734 234.551 459.034C229.065 457.334 224.893 463.064 223.077 458.029C221.262 452.995 230.713 437.632 240.191 440.517C249.668 443.401 248.896 461.442 244.62 464.597Z" fill="#5774CD"/>
<path d="M228.021 436.564C229.451 439.809 228.768 443.247 226.502 444.29C224.236 445.333 221.235 443.479 219.806 440.247C218.377 437.015 219.046 433.564 221.312 432.521C223.579 431.478 226.579 433.332 228.021 436.564Z" fill="#5774CD"/>
<path d="M240.447 431.438C240.447 434.98 238.464 437.877 235.979 437.877C233.494 437.877 231.472 435.018 231.459 431.438C231.446 427.859 233.442 425 235.914 425C238.387 425 240.421 427.897 240.447 431.438Z" fill="#5774CD"/>
<path d="M252.487 444.033C249.499 445.926 248.134 449.184 249.461 451.257C250.787 453.33 254.277 453.523 257.277 451.63C260.277 449.737 261.642 446.479 260.316 444.406C258.99 442.333 255.487 442.14 252.487 444.033Z" fill="#5774CD"/>
<path d="M245.043 432.842C243.048 435.765 243.099 439.281 245.146 440.672C247.194 442.062 250.478 440.826 252.473 437.89C254.469 434.954 254.418 431.452 252.37 430.061C250.323 428.67 247.039 429.906 245.043 432.842Z" fill="#5774CD"/>
<path d="M216.83 489.784C215.762 495.025 210.804 489.99 205.627 492.424C200.451 494.858 201.159 501.889 196.433 499.365C191.707 496.841 188.424 479.109 197.386 474.898C206.349 470.688 217.886 484.582 216.83 489.784Z" fill="#5774CD"/>
<path d="M185.708 480.14C188.94 481.582 190.755 484.595 189.738 486.861C188.721 489.128 185.283 489.784 182.012 488.342C178.741 486.9 176.964 483.9 177.981 481.633C178.999 479.367 182.476 478.697 185.708 480.14Z" fill="#5774CD"/>
<path d="M191.476 467.997C193.871 470.573 194.322 474.101 192.493 475.724C190.665 477.346 187.24 476.638 184.845 474.024C182.449 471.41 181.999 467.92 183.84 466.298C185.682 464.675 189.094 465.383 191.476 467.997Z" fill="#5774CD"/>
<path d="M208.872 469.258C207.906 472.671 209.065 475.98 211.447 476.65C213.83 477.319 216.598 475.092 217.499 471.679C218.401 468.267 217.293 464.957 214.924 464.288C212.555 463.618 209.825 465.846 208.872 469.258Z" fill="#5774CD"/>
<path d="M195.841 465.949C196.33 469.465 198.712 472.027 201.172 471.692C203.631 471.358 205.228 468.228 204.739 464.713C204.249 461.198 201.854 458.635 199.395 458.983C196.935 459.33 195.351 462.447 195.841 465.949Z" fill="#5774CD"/>
<path d="M350.65 150.434C349.17 173.033 340.143 204.852 333.782 210.955C322.849 221.566 284.617 233.039 264.349 234.456C257.202 234.958 259.494 206.127 264.207 199.83C267.04 196.083 308.697 193.391 313.513 188.588C320.815 181.326 325.927 167.715 338.224 146.249C344.122 136.037 352.015 129.843 350.65 150.434Z" fill="#E89176"/>
<path d="M277.446 196.495C277.446 196.495 267.003 192.426 262.11 191.924C257.217 191.421 238.313 196.289 239.137 200.422C240.18 205.779 251.654 205.122 257.165 204.067C257.165 204.067 259.586 216.441 267.917 217.755C276.249 219.068 277.446 196.495 277.446 196.495Z" fill="#E89176"/>
<path d="M271.136 233.4C267.054 234.315 247.957 236.903 242.471 236.426C236.986 235.95 221.34 233.465 221.263 229.228C221.186 224.992 225.847 225.365 225.847 225.365C225.847 225.365 219.409 223.266 219.718 219.004C220.027 214.742 227.251 215.54 227.251 215.54C227.251 215.54 220.812 212.9 221.418 208.664C222.023 204.427 229.144 206.462 229.144 206.462C229.144 206.462 223.13 204.324 225.113 201.053C227.496 197.126 238.145 202.341 244.236 202.341C245.613 202.341 272.256 200.654 272.256 200.654L271.136 233.4Z" fill="#E89176"/>
<path d="M228.513 206.295C236.355 210.158 240.45 210.416 248.974 209.45C249.142 209.45 249.206 209.682 249.038 209.72C240.771 211.407 235.582 211.768 228.307 206.669C227.972 206.424 228.165 206.115 228.513 206.295Z" fill="#282828"/>
<path d="M226.632 215.231C235.131 218.463 239.509 218.837 248.523 218.489C248.652 218.489 248.678 218.708 248.523 218.721C239.715 219.803 234.539 220.009 226.478 215.682C226.169 215.489 226.246 215.077 226.632 215.231Z" fill="#282828"/>
<path d="M226.311 225.34C234.759 227.915 239.6 228.494 248.305 227.039C248.346 227.039 248.385 227.056 248.414 227.085C248.443 227.114 248.46 227.153 248.46 227.194C248.46 227.235 248.443 227.274 248.414 227.303C248.385 227.332 248.346 227.348 248.305 227.348C239.575 229.705 233.535 228.971 226.195 225.597C225.758 225.365 225.77 225.211 226.311 225.34Z" fill="#282828"/>
<path d="M239.897 201.801C244.365 205.986 251.602 204.132 257.074 203.514C257.499 203.514 257.68 203.784 257.654 204.119C259.019 209.27 262.431 216.056 267.685 217.962C267.711 217.971 267.733 217.987 267.749 218.009C267.765 218.031 267.774 218.057 267.774 218.084C267.774 218.111 267.765 218.138 267.749 218.16C267.733 218.182 267.711 218.198 267.685 218.207C261.774 216.919 257.873 210.481 256.74 204.802C251.125 205.523 243.798 207.055 239.909 201.84C239.832 201.814 239.858 201.776 239.897 201.801Z" fill="#282828"/>
<path d="M324.229 169.131L347.188 184.004C347.188 184.004 351.154 163.401 352.12 149.854C353.086 136.308 347.227 128.852 336.887 146.159C326.546 163.465 324.229 169.131 324.229 169.131Z" fill="#85A3FF"/>
<path d="M347.073 177.039C340.934 172.805 334.581 168.89 328.041 165.308C327.938 165.308 327.822 165.398 327.925 165.475C330.861 167.651 345.244 176.395 347.009 177.064C347.06 177.167 347.124 177.09 347.073 177.039Z" fill="#282828"/>
<path d="M265.263 545.848C268.225 546.801 352.736 545.706 355.93 543.62C357.153 542.847 357.707 530.524 357.951 515.613V515.149C357.951 512.071 358.041 508.904 358.041 505.697C358.041 505.259 358.041 504.822 358.041 504.41L353.934 460.563L297.404 461.13L303.018 504.641L303.083 506.354L303.43 515.368V516.295C303.43 516.295 271.238 531.181 268.006 533.846C264.774 536.512 262.301 544.933 265.263 545.848Z" fill="#E89176"/>
<path d="M265.264 545.848C268.226 546.801 352.737 545.707 355.931 543.62C357.154 542.848 357.708 530.525 357.953 515.613V515.15C357.953 512.072 358.043 508.904 358.043 505.698C358.043 505.26 358.043 504.822 358.043 504.41L302.981 504.565L303.045 506.277L303.393 515.291V516.218C303.393 516.218 271.2 531.104 267.968 533.77C264.736 536.435 262.303 544.934 265.264 545.848Z" fill="#EAF1FF"/>
<path d="M265.251 545.848C266.783 546.337 289.717 546.286 312.187 545.848C316.694 545.758 321.201 545.655 325.464 545.539C341.47 545.101 354.694 544.444 355.918 543.646C357.141 542.848 357.695 530.898 357.939 516.257C357.939 516.051 357.939 515.845 357.939 515.639C357.939 515.433 357.939 515.317 357.939 515.162L303.47 515.265V516.192C303.47 516.192 271.277 531.078 268.045 533.744C264.813 536.409 262.289 544.934 265.251 545.848Z" fill="#231F20"/>
<path d="M266.179 542.589C280.421 542.061 337.904 541.301 352.03 541.803C352.146 541.803 352.146 541.88 352.03 541.893C337.929 542.73 280.434 543.078 266.179 542.82C265.857 542.82 265.857 542.601 266.179 542.589Z" fill="#282828"/>
<path d="M297.365 515.522C302.954 514.402 309.817 515.175 314.105 519.102C314.273 519.257 314.105 519.501 313.873 519.437C308.508 517.787 302.983 516.712 297.391 516.231C297.308 516.218 297.232 516.177 297.176 516.114C297.12 516.051 297.087 515.971 297.084 515.887C297.081 515.803 297.108 515.721 297.159 515.654C297.21 515.587 297.283 515.541 297.365 515.522Z" fill="white"/>
<path d="M293.348 518.008C298.936 516.888 305.813 517.661 310.088 521.601C310.255 521.756 310.088 521.987 309.856 521.936C304.477 520.271 298.933 519.192 293.322 518.717C293.24 518.698 293.167 518.652 293.116 518.585C293.065 518.518 293.038 518.436 293.041 518.352C293.044 518.268 293.077 518.188 293.133 518.125C293.189 518.062 293.265 518.021 293.348 518.008Z" fill="white"/>
<path d="M289.331 520.493C294.919 519.386 301.796 520.158 306.071 524.086C306.251 524.24 306.071 524.485 305.839 524.42C300.461 522.769 294.923 521.69 289.318 521.201C289.236 521.184 289.162 521.139 289.11 521.073C289.058 521.007 289.03 520.926 289.031 520.842C289.033 520.758 289.064 520.677 289.118 520.613C289.173 520.55 289.248 520.507 289.331 520.493Z" fill="white"/>
<path d="M312.213 545.848C316.72 545.758 321.227 545.655 325.489 545.539C341.495 545.101 354.72 544.444 355.943 543.646C357.166 542.848 357.72 530.898 357.965 516.257C357.965 516.051 357.965 515.845 357.965 515.639C357.965 515.433 357.965 515.317 357.965 515.162C350.432 520.416 324.137 537.916 312.213 545.848Z" fill="#282828"/>
<path d="M299.722 515.47H360.578C360.578 515.47 348.332 373.296 348.809 370.836C349.414 367.656 353.007 353.272 357.823 334.472C359.316 328.587 360.939 322.277 362.613 315.736C367.146 298.056 372.155 278.727 376.507 261.91C383.049 236.71 388.096 217.137 388.096 217.137H336.55C336.55 217.137 330.536 236.195 322.965 260.983C310.616 301.288 294.12 356.749 292.498 370.231C289.858 391.993 299.722 515.47 299.722 515.47Z" fill="#D7E5FF"/>
<path d="M302.415 505.092C311.712 504.899 309.046 504.821 318.343 504.731C322.889 504.731 352.789 504.422 357.039 505.13C357.063 505.13 357.086 505.14 357.102 505.157C357.119 505.174 357.129 505.197 357.129 505.221C357.129 505.244 357.119 505.267 357.102 505.284C357.086 505.301 357.063 505.311 357.039 505.311C352.789 506.019 322.889 505.761 318.343 505.71C309.046 505.633 311.712 505.555 302.415 505.362C302.247 505.349 302.247 505.092 302.415 505.092Z" fill="#282828"/>
<path d="M337.349 362.145C339.345 353.35 342.332 344.722 344.934 336.094C350.196 318.547 355.501 301.009 360.849 283.479C363.519 274.68 366.193 265.915 368.872 257.184C370.237 252.763 371.606 248.347 372.98 243.934C374.332 239.607 375.877 235.332 377.1 230.967C377.602 229.203 377.873 230.169 377.229 232.422C375.941 236.968 374.654 241.513 373.366 246.033C370.79 255.012 368.155 263.975 365.459 272.92C360.18 290.75 354.857 308.568 349.492 326.372C346.814 335.309 344.127 344.237 341.431 353.156C340.074 357.408 338.977 361.738 338.147 366.124C337.427 370.705 337.245 375.355 337.607 379.979C338.186 389.289 339.268 398.586 340.182 407.884L342.757 435.814C344.474 454.331 346.191 472.856 347.908 491.391C348.114 493.747 348.32 496.091 348.5 498.447C348.5 499.233 347.367 499.168 347.29 498.447C345.281 480.136 343.749 461.748 342.023 443.398C340.298 425.049 338.598 406.892 336.873 388.632C336.448 384.048 335.958 379.451 335.945 374.841C335.94 370.57 336.41 366.311 337.349 362.145Z" fill="#282828"/>
<path d="M342.41 217.137C345.99 244.835 352.815 296.781 357.798 334.472C369.387 288.81 388.136 217.137 388.136 217.137H342.41Z" fill="#282828"/>
<path d="M329.74 546.696C332.701 547.662 417.213 546.877 420.406 544.803C421.694 544.031 422.235 531.708 422.544 516.809V516.332C422.621 513.268 422.673 510.1 422.686 506.894C422.686 506.456 422.686 506.005 422.686 505.606C422.892 484.088 421.333 461.824 421.333 461.824L366.091 462.185L367.637 505.619L367.701 507.331L368.01 516.345V517.272C368.01 517.272 335.818 532.042 332.521 534.695C329.225 537.348 326.778 545.743 329.74 546.696Z" fill="#E89176"/>
<path d="M329.74 546.697C332.701 547.663 417.213 546.877 420.406 544.804C421.694 544.031 422.235 531.708 422.544 516.809V516.333C422.621 513.268 422.673 510.101 422.686 506.894C422.686 506.456 422.686 506.006 422.686 505.606H367.637L367.701 507.319L368.01 516.333V517.26C368.01 517.26 335.818 532.03 332.521 534.683C329.225 537.335 326.778 545.744 329.74 546.697Z" fill="#EAF1FF"/>
<path d="M329.738 546.696C332.7 547.662 417.212 546.877 420.405 544.803C421.693 544.031 422.234 531.708 422.543 516.809V516.332L368.022 516.229V517.157C368.022 517.157 335.829 531.927 332.533 534.579C329.236 537.232 326.777 545.744 329.738 546.696Z" fill="#231F20"/>
<path d="M330.665 543.414C344.907 542.924 402.403 542.332 416.516 542.937C416.632 542.937 416.632 543.014 416.516 543.027C402.352 543.813 344.92 543.942 330.665 543.645C330.369 543.633 330.369 543.426 330.665 543.414Z" fill="#282828"/>
<path d="M361.944 516.449C367.545 515.354 374.409 516.14 378.684 520.106C378.851 520.248 378.684 520.492 378.439 520.428C373.069 518.752 367.535 517.656 361.931 517.157C361.849 517.14 361.775 517.095 361.723 517.029C361.671 516.963 361.643 516.882 361.645 516.798C361.646 516.714 361.677 516.633 361.732 516.569C361.786 516.506 361.861 516.463 361.944 516.449Z" fill="white"/>
<path d="M357.926 518.922C363.528 517.827 370.391 518.625 374.666 522.579C374.834 522.733 374.666 522.965 374.435 522.913C369.062 521.229 363.523 520.128 357.914 519.63C357.831 519.613 357.758 519.567 357.706 519.502C357.653 519.436 357.625 519.354 357.627 519.27C357.629 519.186 357.659 519.106 357.714 519.042C357.769 518.978 357.844 518.936 357.926 518.922Z" fill="white"/>
<path d="M353.895 521.381C359.497 520.274 366.36 521.072 370.635 525.026C370.803 525.18 370.635 525.412 370.391 525.36C365.02 523.685 359.486 522.588 353.882 522.09C353.8 522.072 353.727 522.027 353.674 521.962C353.622 521.896 353.594 521.814 353.596 521.73C353.597 521.646 353.628 521.566 353.683 521.502C353.737 521.438 353.812 521.396 353.895 521.381Z" fill="white"/>
<path d="M338.225 217.137C338.225 217.137 339.409 241.822 345.062 261.356C345.513 262.979 346.002 264.563 346.543 266.095C351.716 268.188 356.69 270.744 361.403 273.731C361.403 273.731 361.995 293.587 362.601 315.736C363.257 340.498 363.888 368.106 363.798 373.965C363.283 395.856 366.541 516.359 366.541 516.359L427.385 516.603C427.385 516.603 416.388 382.052 416.517 374.03C416.632 361.153 413.568 304.108 411.198 262.515C409.756 236.89 408.623 217.137 408.623 217.137H338.225Z" fill="#D7E5FF"/>
<path d="M368.614 505.542C377.911 505.387 375.246 505.297 384.543 505.245C389.088 505.245 418.989 505.091 423.238 505.812C423.328 505.812 423.328 505.979 423.238 506.005C418.976 506.688 389.088 506.301 384.53 506.237C375.233 506.108 377.911 506.044 368.614 505.812C368.446 505.799 368.446 505.542 368.614 505.542Z" fill="#282828"/>
<path d="M403.395 225.958C404.516 259.902 405.7 293.859 407.258 327.789C408.817 361.72 410.838 395.883 413.697 429.852C415.294 448.833 416.787 475.527 418.848 494.456C418.848 494.585 418.667 494.623 418.655 494.456C414.225 460.783 411.752 419.139 409.576 385.246C407.4 351.354 405.919 317.423 404.76 283.518C404.104 264.319 403.614 245.119 403.035 225.92C402.958 225.662 403.382 225.688 403.395 225.958Z" fill="#282828"/>
<path d="M344.006 264.627C350.055 267.156 355.876 270.202 361.402 273.731C361.443 273.76 361.473 273.803 361.484 273.852C361.496 273.901 361.489 273.952 361.465 273.997C361.442 274.041 361.402 274.075 361.355 274.093C361.308 274.11 361.256 274.11 361.209 274.092C355.35 271.246 349.349 268.49 343.645 265.322C343.553 265.275 343.483 265.192 343.452 265.093C343.421 264.994 343.43 264.887 343.478 264.794C343.525 264.702 343.608 264.633 343.707 264.601C343.806 264.57 343.913 264.579 344.006 264.627Z" fill="#282828"/>
<path d="M340.361 237.328C340.85 239.903 341.481 242.479 342.035 245.054C342.589 247.63 342.962 249.973 343.606 252.381C344.109 254.724 345.281 256.871 346.98 258.562C347.946 259.451 348.989 260.236 350.006 261.047C350.56 261.485 351.152 261.91 351.718 262.335C351.641 262 351.59 261.64 351.525 261.292C351.345 260.296 351.178 259.305 351.023 258.317C350.65 256.128 350.302 253.926 349.954 251.724C349.298 247.385 348.667 243.02 347.791 238.732C347.784 238.71 347.783 238.688 347.787 238.666C347.79 238.644 347.799 238.623 347.812 238.605C347.825 238.587 347.842 238.573 347.862 238.563C347.882 238.553 347.904 238.548 347.926 238.548C347.948 238.548 347.97 238.553 347.99 238.563C348.01 238.573 348.027 238.587 348.04 238.605C348.053 238.623 348.062 238.644 348.066 238.666C348.07 238.688 348.068 238.71 348.061 238.732C349.13 242.968 350.328 247.179 351.268 251.454C351.744 253.54 353.418 263.842 353.418 264.614C353.418 265.387 353.56 266.134 353.586 266.893C353.682 267.667 353.682 268.45 353.586 269.224C353.572 269.261 353.547 269.292 353.515 269.314C353.483 269.336 353.444 269.348 353.405 269.348C353.366 269.348 353.328 269.336 353.296 269.314C353.264 269.292 353.239 269.261 353.225 269.224C352.907 268.505 352.682 267.747 352.555 266.971C352.375 266.224 352.208 265.477 352.066 264.717C352.066 264.447 351.989 264.176 351.95 263.893C350.92 263.275 349.967 262.451 349.014 261.756C348.061 261.06 346.941 260.288 345.962 259.476C344.169 257.951 342.873 255.924 342.241 253.656C341.616 251.211 341.206 248.716 341.018 246.2C340.696 243.251 340.451 240.29 340.039 237.354C340.065 237.212 340.322 237.148 340.361 237.328Z" fill="#282828"/>
<path d="M410.695 254.636L404.36 254.52H403.806L378.542 254.043L371.06 253.902H369.914L351.68 253.541H350.264L347.135 253.477H343.877H342.203L325.398 253.168C331.837 232.371 336.55 217.267 336.55 217.267H408.506C408.506 217.267 409.459 232.938 410.695 254.636Z" fill="#6390FF"/>
<path d="M243.27 168.023C243.27 168.023 259.301 191.601 274.689 198.323C288.416 204.298 311.092 201.697 320.724 199.907C320.724 199.907 296.825 182.986 280.342 176.11C263.86 169.234 243.27 168.023 243.27 168.023Z" fill="#D8E1FF"/>
<path d="M323.879 168.024C318.973 180.386 302.374 189.915 298.614 193.714C294.854 197.513 291.403 214.175 288.596 221.065C285.789 227.954 277.445 253.167 265.212 259.541C252.978 265.915 220.606 272.675 215.687 274.44C210.768 276.204 189.701 285.733 189.07 286.312C188.439 286.892 157.058 294.335 153.349 273.203C150.594 257.494 165.415 234.354 175.498 231.443C176.953 231.031 179.361 230.297 182.374 229.319C192.135 226.202 208.759 220.601 223.967 214.69C237.075 209.63 249.115 204.389 254.768 200.333C269.01 190.198 268.379 166.853 276.414 161.702C284.45 156.551 294.095 157.092 297.636 155.07C302.787 152.121 313.68 137.648 316.681 138.253C321.226 139.231 327.124 159.899 323.879 168.024Z" fill="#FF6576"/>
<path d="M288.16 169.298C290.233 165.435 297.277 169.659 295.345 173.161C293.413 176.664 286.46 172.517 288.16 169.298Z" fill="#282828"/>
<path d="M321.432 147.755C323.209 146.377 321.432 138.226 318.792 136.256C316.153 134.286 306.778 145.837 307.718 148.386C308.658 150.936 319.488 149.236 321.432 147.755Z" fill="#282828"/>
<path d="M273.171 165.346C273.171 164.058 267.389 169.596 263.487 176.575C261.62 180.246 260.392 184.209 259.856 188.293C259.791 191.692 270.389 209.875 277.793 210.66C282.854 211.188 284.142 194.925 283.382 191.345C282.622 187.765 273.312 176.279 273.171 165.346Z" fill="#FF6576"/>
<path opacity="0.1" d="M274.01 162.187C274.01 160.899 268.229 166.436 264.327 173.416C262.46 177.087 261.232 181.05 260.696 185.134C260.631 188.533 271.229 206.716 278.633 207.501C283.694 208.029 284.982 191.765 284.222 188.186C283.462 184.606 274.152 173.12 274.01 162.187Z" fill="#FF6576"/>
<path d="M278.733 182.021C278.45 181.558 278.18 181.081 277.922 180.605C277.665 180.128 277.69 180 277.587 179.691C277.33 178.892 277.072 178.081 276.892 177.27C276.892 177.205 276.763 177.27 276.776 177.27C276.877 177.877 277.01 178.479 277.175 179.072C276.444 177.503 276.028 175.806 275.952 174.076C275.952 173.947 275.772 173.96 275.759 174.076C275.205 180.193 280.034 184.571 282.12 189.863C283.113 192.79 283.383 195.914 282.905 198.967C282.752 202.158 282.009 205.292 280.716 208.213C280.704 208.235 280.702 208.261 280.709 208.285C280.716 208.31 280.733 208.33 280.755 208.342C280.777 208.354 280.803 208.356 280.827 208.349C280.852 208.342 280.872 208.325 280.884 208.303C281.993 206.259 282.8 204.064 283.279 201.787C283.846 199.44 284.114 197.03 284.077 194.615C283.961 189.773 281.167 186.013 278.733 182.021Z" fill="#282828"/>
<path d="M163.111 245.221C156.068 252.703 150.028 268.786 154.2 277.646C156.454 282.423 165.094 285.977 175.19 285.964C176.709 285.964 177.868 290.226 179.22 290.368C183.264 290.793 209.61 290.716 215.276 290.368C220.942 290.02 213.293 282.99 209.893 281.354C206.494 279.719 197.107 277.916 196.579 277.594C196.051 277.272 204.137 259 196.965 253.81C189.792 248.621 168.159 239.865 163.111 245.221Z" fill="#FF6576"/>
<path d="M196.745 277.453C197.531 274.761 198.252 272.044 198.986 269.34C199.843 266.725 200.366 264.012 200.544 261.266C200.634 258.955 199.929 256.683 198.548 254.828C197.016 252.896 194.569 251.802 192.406 250.72L191.749 250.424C190.358 249.4 188.899 248.471 187.384 247.642C187.319 247.642 187.268 247.707 187.384 247.758C188.311 248.441 189.277 249.046 190.255 249.716C188.208 248.853 186.122 248.106 184.049 247.308C183.933 247.308 183.881 247.462 184.049 247.501C186.495 248.376 195.47 253.167 197.157 254.854C200.801 258.511 199.411 264.267 198.278 268.658C197.531 271.568 196.784 274.851 196.088 277.775C196.088 277.89 203.815 279.539 204.085 279.461V279.371C201.683 278.571 199.231 277.93 196.745 277.453Z" fill="#282828"/>
<g opacity="0.1">
<path d="M221.213 235.603C218.767 238.255 215.522 239.569 212.341 241.127C207.971 243.299 203.891 246.011 200.198 249.201C195.318 253.321 189.304 256.425 184.14 250.772C178.977 245.119 179.44 236.671 182.376 229.319C192.137 226.202 208.761 220.601 223.969 214.69C226.956 221.258 225.823 230.671 221.213 235.603Z" fill="#231F20"/>
<path d="M247.457 225.21C244.714 228.764 237.864 230.245 234.58 226.421C232.726 224.244 234.104 221.708 235.198 219.493C235.53 218.827 235.908 218.186 236.331 217.574C236.958 216.212 237.807 214.963 238.842 213.878C239.54 212.965 240.553 212.343 241.684 212.136C242.815 211.929 243.983 212.151 244.959 212.758C249.376 215.089 250.406 221.489 247.457 225.21Z" fill="#231F20"/>
</g>
<path d="M169.099 235.37C159.287 244.384 152.037 258.999 143.796 259.437C135.554 259.875 130.21 249.676 131.82 239.375C132.271 236.49 123.141 249.161 124.789 258.574C126.437 267.987 134.189 273.525 142.74 274.027C151.29 274.529 159.982 268 164.347 260.789C168.712 253.578 169.099 235.37 169.099 235.37Z" fill="#FF6576"/>
<path d="M243.27 168.023C243.27 168.023 262.134 195.709 279.917 199.945C297.7 204.182 320.724 199.945 320.724 199.945L286.961 224.953C286.961 224.953 261.207 227.013 244.995 205.83L243.27 168.023Z" fill="#EAF1FF"/>
<path d="M246.542 246.008C244.842 252.331 250.611 276.308 252.543 278.87C254.474 281.433 266.887 290.846 269.025 290.846H289.332C291.907 290.846 286.937 285.695 283.821 283.944C280.704 282.192 275.219 282.295 274.163 281.021C273.107 279.746 269.244 267.809 270.957 264.783C272.669 261.757 280.202 249.021 282.211 237.406C284.22 225.791 250.637 230.903 246.542 246.008Z" fill="#FF6576"/>
<path d="M246.244 244.707C246.238 244.693 246.228 244.681 246.215 244.673C246.203 244.665 246.188 244.66 246.173 244.66C246.158 244.66 246.143 244.665 246.131 244.673C246.118 244.681 246.108 244.693 246.102 244.707C245.834 248.213 245.856 251.737 246.167 255.24C246.025 254.879 245.896 254.506 245.767 254.12C245.485 253.244 245.266 252.349 245.111 251.441C245.111 251.287 244.827 251.325 244.853 251.441C244.966 252.389 245.164 253.324 245.446 254.235C245.586 254.704 245.754 255.164 245.948 255.613C246.025 255.806 246.115 255.987 246.205 256.18C246.231 256.234 246.261 256.286 246.295 256.334C246.437 257.712 246.617 259.077 246.888 260.429C247.244 262.205 247.731 263.953 248.343 265.657C248.343 265.838 248.729 265.812 248.703 265.593C247.436 258.691 246.614 251.714 246.244 244.707Z" fill="#282828"/>
<path d="M414.945 241.075C414.765 241.32 326.094 249.329 325.154 248.492C323.866 247.307 334.477 164.212 342.113 139.965C345.268 129.947 361.75 132.162 364.892 134.724C380.911 147.794 385.495 158.25 390.118 167.779C395.075 177.601 399.343 187.755 402.892 198.169C409.678 218.772 415.602 240.174 414.945 241.075Z" fill="#85A3FF"/>
<path d="M338.329 154.388C337.659 156.887 337.119 159.423 336.616 161.973C336.681 160.428 336.745 158.895 336.758 157.35C336.752 157.336 336.742 157.325 336.729 157.316C336.717 157.308 336.702 157.304 336.687 157.304C336.672 157.304 336.657 157.308 336.645 157.316C336.632 157.325 336.622 157.336 336.616 157.35C336.462 159.359 336.397 161.381 336.333 163.389C336.204 164.008 336.088 164.677 335.972 165.231C335.625 167.008 334.324 174.695 334.324 176.279C334.324 176.408 334.492 176.447 334.517 176.279C334.891 174.464 335.251 172.622 335.638 170.819C336.024 169.017 336.397 167.201 336.745 165.373C337.44 161.741 338.162 158.084 338.599 154.401C338.592 154.372 338.575 154.346 338.552 154.327C338.528 154.308 338.499 154.297 338.469 154.295C338.439 154.294 338.409 154.302 338.384 154.319C338.358 154.336 338.339 154.36 338.329 154.388Z" fill="#282828"/>
<path opacity="0.1" d="M359.83 174.402L375.711 173.016L375.487 170.45L359.606 171.837L359.83 174.402Z" fill="#282828"/>
<path d="M342.113 139.965C342.397 141.539 342.828 143.082 343.401 144.575C343.937 146.065 344.605 147.504 345.397 148.876C346.133 150.227 347.106 151.435 348.268 152.443C348.814 152.887 349.459 153.191 350.148 153.331C350.834 153.351 351.514 153.205 352.132 152.906C354.942 151.544 357.404 149.558 359.33 147.099C359.858 146.507 360.334 145.811 360.836 145.245C361.339 144.678 361.776 143.957 362.214 143.3C362.652 142.643 363.116 142.013 363.502 141.304C363.888 140.596 364.339 139.939 364.79 139.257C363.595 142.275 362.01 145.123 360.077 147.73C358.179 150.475 355.589 152.67 352.569 154.091C351.756 154.532 350.823 154.7 349.907 154.57C348.991 154.44 348.141 154.02 347.483 153.37C346.23 152.241 345.218 150.87 344.508 149.34C343.059 146.418 342.243 143.224 342.113 139.965Z" fill="#282828"/>
<path d="M304.255 244.037C290.026 244.037 276.454 235.1 275.836 234.688C275.73 234.618 275.639 234.527 275.569 234.422C275.498 234.317 275.449 234.199 275.423 234.074C275.398 233.95 275.398 233.822 275.422 233.697C275.447 233.573 275.495 233.454 275.566 233.349C275.636 233.243 275.726 233.152 275.831 233.081C275.937 233.011 276.055 232.961 276.179 232.936C276.304 232.911 276.432 232.911 276.556 232.935C276.681 232.959 276.799 233.008 276.905 233.078C277.072 233.194 292.962 243.65 307.732 241.912C315.639 240.972 323.532 230.026 330.576 210.247C335.83 194.913 339.73 179.147 342.23 163.131C342.277 162.881 342.418 162.659 342.624 162.51C342.83 162.362 343.085 162.298 343.337 162.332C343.462 162.349 343.583 162.392 343.692 162.456C343.8 162.521 343.895 162.607 343.969 162.71C344.044 162.812 344.097 162.928 344.125 163.051C344.154 163.174 344.157 163.302 344.135 163.427C344.02 164.199 331.992 240.998 307.964 243.831C306.733 243.97 305.495 244.039 304.255 244.037Z" fill="#282828"/>
<path d="M283.524 237.869C284.314 236.141 284.572 234.217 284.268 232.341C283.964 230.466 283.11 228.722 281.815 227.332C280.52 225.941 278.841 224.966 276.992 224.53C275.142 224.094 273.205 224.216 271.425 224.881C269.645 225.545 268.102 226.723 266.991 228.265C265.881 229.807 265.252 231.644 265.186 233.543C265.119 235.442 265.617 237.318 266.617 238.934C267.616 240.55 269.073 241.833 270.802 242.621C273.119 243.677 275.761 243.77 278.147 242.879C280.533 241.988 282.467 240.186 283.524 237.869Z" fill="#282828"/>
<path d="M280.02 236.285C280.488 235.246 280.639 234.091 280.453 232.967C280.267 231.842 279.753 230.797 278.976 229.964C278.198 229.131 277.191 228.546 276.082 228.283C274.973 228.02 273.811 228.091 272.742 228.486C271.673 228.882 270.745 229.584 270.074 230.506C269.403 231.427 269.02 232.527 268.972 233.665C268.924 234.804 269.214 235.932 269.805 236.906C270.396 237.881 271.261 238.659 272.293 239.143C272.987 239.469 273.739 239.653 274.505 239.685C275.271 239.718 276.036 239.597 276.755 239.331C277.474 239.065 278.133 238.659 278.693 238.136C279.254 237.613 279.705 236.984 280.02 236.285Z" fill="#EAF1FF"/>
<path d="M376.276 154.503C381.427 187.829 381.929 216.312 376.727 220.768C364.146 231.404 336.808 252.265 325.811 258.214C321.729 260.403 308.492 227.4 312.78 224.914C326.198 217.188 351.411 199.92 351.874 199.495C353.831 197.589 358.879 170.998 363.219 149.7C365.768 137.196 374.023 140.068 376.276 154.503Z" fill="#E89176"/>
<path d="M270.635 240.418C270.637 241.539 270.981 242.632 271.62 243.553C272.26 244.473 273.165 245.176 274.215 245.569C273.139 247.152 272.647 249.059 272.824 250.964C273.313 254.3 278.747 255.008 278.747 255.008C277.975 256.883 277.782 258.946 278.194 260.931C278.979 264.073 284.374 265.58 284.374 265.58C284.627 267.689 285.617 269.641 287.169 271.091C289.937 273.473 299.762 272.147 305.042 270.537C310.322 268.928 323.778 259.399 326.521 257.841L316.451 223.923C316.451 223.923 290.697 224.425 284.799 227.206C279.803 229.537 270.802 236.104 270.635 240.418Z" fill="#E89176"/>
<path d="M274.278 244.977C279.004 241.217 284.58 239.053 290.014 236.581C290.026 236.571 290.04 236.565 290.055 236.561C290.07 236.558 290.085 236.558 290.1 236.561C290.115 236.564 290.129 236.571 290.142 236.58C290.154 236.59 290.163 236.602 290.17 236.616C290.177 236.629 290.181 236.644 290.181 236.66C290.181 236.675 290.178 236.69 290.172 236.704C290.166 236.718 290.156 236.731 290.145 236.74C290.133 236.75 290.119 236.757 290.104 236.761C284.657 239.169 279.803 242.62 274.433 245.221C274.4 245.242 274.361 245.249 274.324 245.24C274.286 245.232 274.254 245.209 274.233 245.176C274.213 245.144 274.206 245.105 274.214 245.067C274.223 245.03 274.246 244.997 274.278 244.977Z" fill="#282828"/>
<path d="M278.733 254.557C279.89 253.804 281.142 253.206 282.455 252.78C283.811 252.257 285.176 251.741 286.55 251.235C289.292 250.256 292.061 249.329 294.855 248.492C294.984 248.492 295.074 248.634 294.945 248.685C292.203 249.664 289.486 250.694 286.794 251.802C285.442 252.342 284.103 252.909 282.764 253.488C281.531 254.103 280.236 254.582 278.901 254.918C278.856 254.925 278.81 254.918 278.77 254.897C278.73 254.876 278.698 254.842 278.679 254.801C278.66 254.76 278.655 254.714 278.665 254.67C278.675 254.626 278.699 254.586 278.733 254.557Z" fill="#282828"/>
<path d="M284.488 265.554C285.541 264.889 286.699 264.41 287.914 264.138L291.686 262.85C294.197 261.974 296.709 261.099 299.194 260.133C299.323 260.133 299.4 260.274 299.284 260.326C296.708 261.318 294.262 262.335 291.738 263.301C290.45 263.777 289.253 264.253 288.004 264.704C286.913 265.236 285.735 265.568 284.527 265.683C284.514 265.68 284.501 265.673 284.491 265.664C284.481 265.655 284.474 265.643 284.47 265.63C284.466 265.617 284.466 265.603 284.469 265.589C284.472 265.576 284.479 265.564 284.488 265.554Z" fill="#282828"/>
<path d="M355.865 179.344L382.134 186.903C382.134 186.903 379.984 166.068 376.983 152.791C373.983 139.515 366.218 134.094 361.325 153.654C356.432 173.214 355.865 179.344 355.865 179.344Z" fill="#85A3FF"/>
<path d="M360.966 155.353C360.966 155.276 360.863 155.238 360.85 155.353C360.18 157.611 359.541 159.873 358.931 162.14C358.931 161.908 358.931 161.663 358.931 161.431C358.995 160.337 359.034 159.229 359.021 158.122C359.021 158.006 358.841 158.006 358.828 158.122C358.751 159.126 358.712 160.131 358.699 161.135C358.699 161.637 358.699 162.14 358.699 162.642V162.886C358.3 164.38 357.927 165.887 357.592 167.393C356.591 171.358 355.851 175.385 355.377 179.446C355.377 179.601 356.665 179.845 357.141 179.948C357.27 179.948 357.283 179.807 357.141 179.755C356.69 179.523 356.433 179.498 355.969 179.279C357.012 175.416 357.618 171.385 358.442 167.458C359.266 163.53 360.103 159.371 360.966 155.353Z" fill="#282828"/>
<path d="M381.093 174.102C380.861 172.299 380.616 170.496 380.346 168.706C380.462 167.303 380.603 165.886 380.603 164.482C380.603 164.405 380.475 164.379 380.462 164.482C380.307 165.526 380.23 166.594 380.178 167.65C379.856 165.706 379.509 163.787 379.084 161.83C379.084 161.74 378.929 161.765 378.942 161.83C379.316 165.989 379.869 170.123 380.371 174.269C380.874 178.415 381.324 182.549 381.904 186.618C381.221 186.618 380.616 186.322 379.959 186.245C379.94 186.252 379.923 186.265 379.911 186.282C379.899 186.3 379.892 186.32 379.892 186.341C379.892 186.362 379.899 186.383 379.911 186.4C379.923 186.417 379.94 186.43 379.959 186.438C380.751 186.783 381.588 187.013 382.445 187.12C382.213 182.909 381.633 178.299 381.093 174.102Z" fill="#282828"/>
<path d="M379.727 180.966C372.725 178.398 365.595 176.198 358.364 174.373C358.261 174.373 358.171 174.515 358.287 174.553C361.686 175.931 377.795 180.812 379.688 181.082L379.727 180.966Z" fill="#282828"/>
<path d="M349.826 148.604C353.689 149.171 360.913 142.166 363.669 136.088C363.849 135.663 362.922 131.504 362.033 126.404C361.505 123.301 360.99 119.824 360.746 116.631L341.057 123.069C342.507 126.98 343.471 131.054 343.928 135.199C343.965 135.628 343.965 136.059 343.928 136.487C343.928 136.487 343.928 136.616 343.928 136.706C343.658 139.217 346.207 148.064 349.826 148.604Z" fill="#E89176"/>
<path d="M359.304 117.044C359.368 121.821 358.48 135.51 345.937 136.604C345.252 136.661 344.563 136.661 343.877 136.604C343.877 136.527 343.877 136.45 343.877 136.385C343.908 135.956 343.908 135.526 343.877 135.097C343.43 130.953 342.474 126.879 341.031 122.967L359.304 117.044Z" fill="#282828"/>
<path d="M356.702 90.1955C360.875 96.3764 363.334 117.173 359.831 123.058C354.758 131.582 343.439 135.728 335.443 128.942C327.716 122.362 324.961 95.2046 329.146 89.5516C335.314 81.2202 350.534 81.0786 356.702 90.1955Z" fill="#E89176"/>
<path d="M359.858 123.058C355.802 129.882 347.741 133.9 340.543 131.749C339.995 131.583 339.458 131.385 338.933 131.157C337.665 130.591 336.485 129.845 335.431 128.942C327.704 122.362 324.949 95.2046 329.147 89.5516C335.315 81.2202 350.522 81.0786 356.69 90.1955C360.888 96.4408 363.335 117.173 359.858 123.058Z" fill="#E89176"/>
<path d="M341.83 108.173C341.83 108.173 341.945 108.173 341.958 108.289C342.087 109.692 342.46 111.276 343.787 111.585V111.663C342.216 111.637 341.727 109.525 341.83 108.173Z" fill="#282828"/>
<path d="M342.899 106.561C345.127 106.11 345.861 110.604 343.801 111.016C341.74 111.429 341.032 106.934 342.899 106.561Z" fill="#282828"/>
<path d="M334.106 109.628C334.106 109.628 334.016 109.718 334.028 109.77C334.299 111.16 334.376 112.796 333.191 113.452C333.191 113.452 333.191 113.543 333.191 113.53C334.762 113.066 334.646 110.903 334.106 109.628Z" fill="#282828"/>
<path d="M332.674 108.378C330.408 108.571 330.974 113.091 333.073 112.911C335.172 112.73 334.58 108.223 332.674 108.378Z" fill="#282828"/>
<path d="M344.405 104.168C343.786 104.089 343.171 103.977 342.564 103.833C341.898 103.81 341.259 103.566 340.748 103.138C340.618 102.97 340.547 102.764 340.547 102.552C340.547 102.34 340.618 102.133 340.748 101.966C341.045 101.662 341.417 101.442 341.827 101.331C342.237 101.22 342.67 101.222 343.079 101.335C343.945 101.434 344.744 101.852 345.32 102.507C345.444 102.666 345.52 102.858 345.536 103.059C345.553 103.261 345.509 103.463 345.412 103.64C345.314 103.817 345.167 103.961 344.988 104.055C344.809 104.149 344.606 104.188 344.405 104.168Z" fill="#282828"/>
<path d="M330.575 106.394C331.16 106.177 331.732 105.928 332.288 105.647C332.927 105.463 333.488 105.074 333.885 104.54C333.975 104.348 334 104.133 333.956 103.925C333.912 103.718 333.801 103.532 333.64 103.394C333.279 103.169 332.864 103.044 332.438 103.033C332.013 103.022 331.592 103.124 331.219 103.329C330.405 103.637 329.731 104.232 329.326 105.003C329.243 105.184 329.214 105.385 329.244 105.582C329.273 105.778 329.36 105.962 329.493 106.11C329.626 106.258 329.799 106.364 329.992 106.414C330.184 106.465 330.387 106.458 330.575 106.394Z" fill="#282828"/>
<path d="M343.427 116.876C343.157 117.475 342.768 118.013 342.283 118.456C341.798 118.899 341.228 119.238 340.607 119.452C340.064 119.646 339.496 119.763 338.92 119.8C338.809 119.812 338.696 119.812 338.585 119.8H338.276C338.213 119.799 338.152 119.782 338.098 119.75C338.043 119.719 337.998 119.674 337.967 119.619C337.961 119.572 337.961 119.525 337.967 119.478V119.362C337.761 118.293 337.594 116.645 337.594 116.645C337.246 116.902 335.392 118.126 335.327 117.559C334.668 112.708 334.504 107.802 334.838 102.918C334.838 102.884 334.851 102.851 334.876 102.827C334.9 102.803 334.933 102.789 334.967 102.789C335.001 102.789 335.034 102.803 335.058 102.827C335.082 102.851 335.095 102.884 335.095 102.918C335.726 107.399 335.572 111.932 336.138 116.477C336.798 116.03 337.517 115.678 338.276 115.434C338.431 115.434 338.521 118.628 338.649 119.091C339.542 119.037 340.415 118.804 341.216 118.406C342.016 118.008 342.729 117.453 343.311 116.773C343.375 116.67 343.491 116.748 343.427 116.876Z" fill="#282828"/>
<path d="M339.461 119.208C340.184 119.885 341.072 120.36 342.036 120.585C342.559 120.697 343.104 120.643 343.594 120.431C344.65 119.954 344.509 118.937 344.174 118.1C343.987 117.643 343.744 117.211 343.453 116.812C342.417 118.022 341.016 118.863 339.461 119.208Z" fill="#282828"/>
<path d="M341.998 120.586C342.521 120.697 343.065 120.643 343.556 120.431C344.612 119.955 344.47 118.938 344.136 118.101C343.546 118.202 343.01 118.506 342.62 118.959C342.23 119.413 342.01 119.988 341.998 120.586Z" fill="#FF9ABB"/>
<path d="M360.387 107.645C360.387 107.645 362.962 94.7676 360.206 88.8055C358.919 86.1271 354.489 85.612 354.489 85.612C354.374 84.3748 353.915 83.1945 353.164 82.2046C352.413 81.2147 351.4 80.4546 350.24 80.0106C345.849 78.1048 338.161 81.6459 338.161 81.6459C338.161 81.6459 330.332 76.0573 324.099 81.6459C317.867 87.2345 325.593 93.7632 325.593 93.7632C325.593 93.7632 324.305 98.5276 331.877 99.1457C339.268 99.7509 351.257 92.2437 351.257 92.2437C352.256 96.9343 353.953 101.449 356.292 105.636C356.723 106.316 357.333 106.863 358.056 107.217C358.779 107.572 359.585 107.72 360.387 107.645Z" fill="#282828"/>
<path d="M336.937 82.1992C338.327 80.9544 339.957 80.0078 341.727 79.4178C343.284 78.8282 344.931 78.5145 346.595 78.4906C348.073 78.395 349.55 78.7041 350.866 79.3848C352.182 80.0654 353.287 81.0919 354.063 82.3537C354.424 83.0225 354.647 83.7566 354.72 84.5128C354.793 85.2691 354.714 86.0323 354.488 86.7577C354.488 86.7577 354.373 86.7577 354.398 86.7577C355.338 84.0664 353.278 81.1433 350.909 80.023C348.115 78.9296 345.017 78.9021 342.204 79.9457C340.391 80.5636 338.661 81.4027 337.053 82.4439C336.937 82.3924 336.847 82.2765 336.937 82.1992Z" fill="#282828"/>
<path d="M330.422 100.035C333.751 100.168 337.07 99.5888 340.157 98.3352C343.379 97.0776 346.453 95.4713 349.325 93.545C351.012 92.4504 352.647 91.2786 354.27 90.0811C354.27 90.0811 354.373 90.0811 354.27 90.1583C351.585 92.6556 348.646 94.8653 345.501 96.7513C342.563 98.4712 339.317 99.5998 335.946 100.074C334.091 100.312 332.213 100.312 330.357 100.074C330.357 100.074 330.37 100.035 330.422 100.035Z" fill="#282828"/>
<path d="M357.424 107.541C357.424 107.541 360.077 99.8148 363.437 100.626C366.798 101.437 366.09 111.636 363.038 113.889C362.667 114.198 362.238 114.429 361.776 114.568C361.314 114.708 360.829 114.755 360.349 114.704C359.869 114.654 359.404 114.508 358.981 114.275C358.558 114.042 358.187 113.727 357.887 113.349L357.424 107.541Z" fill="#E89176"/>
<path d="M363.167 103.562C363.167 103.562 363.244 103.562 363.167 103.639C361.055 105.3 360.424 107.875 360.205 110.425C360.281 110.15 360.415 109.894 360.598 109.675C360.782 109.456 361.01 109.28 361.268 109.158C361.526 109.035 361.808 108.97 362.093 108.967C362.379 108.963 362.661 109.021 362.922 109.137V109.279C362.464 109.268 362.013 109.398 361.631 109.651C361.249 109.904 360.953 110.269 360.785 110.695C360.513 111.415 360.319 112.162 360.205 112.923C360.205 113.168 359.742 113.155 359.755 112.923C358.827 109.742 359.974 104.798 363.167 103.562Z" fill="#282828"/>
<path d="M356.11 142.335C367.172 123.612 366.966 118.371 365.935 115.577C365.128 113.602 363.876 111.839 362.278 110.426L361.287 111.598C362.686 112.848 363.786 114.397 364.506 116.13C365.253 118.165 365.794 123.058 354.797 141.588L356.11 142.335Z" fill="#EAF1FF"/>
<path d="M363.298 112.777L363.579 112.493C364.135 111.933 364.132 111.028 363.571 110.472L361.843 108.758C361.282 108.203 360.377 108.206 359.822 108.767L359.54 109.05C358.985 109.611 358.988 110.516 359.549 111.072L361.277 112.785C361.838 113.341 362.743 113.337 363.298 112.777Z" fill="#5774CD"/>
<path d="M341.353 139.077L339.834 139.257C339.473 136.295 339.177 133.604 338.945 131.157C339.47 131.385 340.008 131.583 340.555 131.75C340.761 133.964 341.027 136.407 341.353 139.077Z" fill="#EAF1FF"/>
<path d="M339.255 139.849C339.468 143.417 339.898 146.969 340.543 150.485C341.013 152.07 341.902 153.499 343.118 154.619C343.415 154.619 342.925 157.31 342.475 159.461C342.075 161.341 341.573 163.53 341.947 164.212C342.175 164.529 342.516 164.746 342.899 164.818C343.283 164.889 343.68 164.811 344.007 164.599C344.599 164.109 344.934 161.881 345.295 159.976C345.668 157.825 346.17 155.198 346.479 155.25C347.845 154.427 349.089 153.417 350.175 152.25C352.571 149.398 354.636 146.283 356.33 142.965C357.116 140.789 356.987 140.029 356.33 139.72C355.467 139.282 354.617 140.3 353.368 142.566C351.244 146.429 348.063 152.275 345.333 151.889C342.668 151.245 342.526 144.163 342.178 140.107C341.972 137.596 341.483 137.286 340.53 137.377C339.796 137.441 339.088 137.647 339.255 139.849Z" fill="#5774CD"/>
<path d="M503.412 398.791C503.412 398.791 523.886 394.155 535.102 383.815C546.318 373.475 552.589 354.971 552.589 354.971C544.809 356.459 537.138 358.472 529.63 360.997C526.82 363.888 524.479 367.198 522.689 370.809C522.512 368.473 522.512 366.127 522.689 363.791C520.068 364.927 517.616 366.418 515.401 368.221C506.039 376.359 503.412 398.791 503.412 398.791Z" fill="#85A3FF"/>
<path d="M539.801 363.972C542.595 362.041 545.428 360.174 548.21 358.229C548.377 358.113 548.21 357.843 548.042 357.959C542.763 361.101 537.573 364.475 532.59 367.99C530.873 369.226 529.156 370.514 527.439 371.853C527.555 371.647 527.671 371.441 527.8 371.235C528.405 370.218 529.087 369.201 529.705 368.196C530.987 366.147 532.439 364.208 534.045 362.402C534.109 362.337 534.045 362.234 533.955 362.298C532.358 364.14 530.761 365.956 529.306 367.913C528.624 368.84 528.018 369.793 527.362 370.772C527.053 371.287 526.744 371.802 526.447 372.317L526.138 372.845C523.486 374.931 520.91 377.094 518.412 379.386C516.893 380.803 515.438 382.271 514.021 383.777C514.807 381.305 515.502 378.794 516.416 376.36C516.416 376.27 516.313 376.244 516.288 376.36C515.399 378.936 514.42 381.511 513.712 384.086C512.154 385.773 510.647 387.524 509.244 389.353C509.244 389.25 509.244 389.134 509.308 389.018C509.54 388.052 509.785 387.1 510.042 386.134C510.544 384.279 511.085 382.451 511.716 380.635C512.887 376.862 514.747 373.339 517.202 370.244C517.266 370.179 517.202 370.089 517.112 370.153C513.262 374.916 510.565 380.504 509.231 386.481C509.012 387.357 508.806 388.233 508.6 389.057C508.497 389.52 508.381 389.997 508.304 390.473C507.686 391.297 507.016 392.147 506.488 393.049C503.002 398.383 500.1 404.077 497.835 410.033C495.279 416.726 493.087 423.553 491.268 430.482C491.275 430.505 491.29 430.524 491.31 430.538C491.33 430.552 491.353 430.56 491.377 430.56C491.401 430.56 491.425 430.552 491.444 430.538C491.464 430.524 491.479 430.505 491.487 430.482C495.491 418.506 499.573 406.363 506.424 395.714C507.875 393.465 509.433 391.289 511.098 389.186C514.488 388.96 517.834 388.293 521.052 387.203C524.565 386.016 527.917 384.398 531.032 382.387C532.834 381.215 534.47 379.811 536.182 378.523C536.194 378.519 536.204 378.513 536.213 378.504C536.221 378.495 536.227 378.484 536.231 378.472C536.234 378.461 536.235 378.448 536.232 378.436C536.23 378.424 536.225 378.413 536.217 378.403C536.21 378.394 536.2 378.386 536.189 378.381C536.178 378.376 536.166 378.373 536.154 378.373C536.142 378.374 536.13 378.377 536.119 378.383C536.108 378.389 536.099 378.397 536.092 378.408C533.234 380.715 530.076 382.625 526.705 384.086C523.404 385.604 519.951 386.765 516.403 387.55C514.884 387.885 513.352 388.13 511.819 388.336C513.719 386.004 515.735 383.769 517.859 381.64C518.541 380.957 519.262 380.352 519.97 379.631C522.36 377.962 524.894 376.51 527.542 375.291C530.89 373.682 534.187 371.956 537.509 370.269C539.389 369.316 541.243 368.338 543.136 367.424C543.213 367.424 543.136 367.269 543.059 367.308C539.698 368.93 536.273 370.45 532.886 372.008C529.692 373.463 526.447 374.931 523.383 376.656L522.996 376.888C525.778 374.476 528.641 372.167 531.585 369.96C534.251 367.913 537.007 365.904 539.801 363.972Z" fill="#282828"/>
<path d="M538.643 374.584C536.982 375.318 535.282 375.962 533.634 376.735C531.954 377.539 530.317 378.429 528.728 379.4C528.65 379.4 528.728 379.542 528.792 379.503C530.427 378.73 532.076 377.996 533.698 377.185C535.321 376.374 536.982 375.46 538.682 374.713C538.759 374.584 538.72 374.481 538.643 374.584Z" fill="#282828"/>
<path d="M436.928 295.66C440.714 300.536 442.856 306.487 443.044 312.658C443.044 314.486 442.825 317.049 442.606 320.049C447.718 323.014 452.247 326.884 455.973 331.471C451.887 329.097 447.196 327.97 442.478 328.226C442.576 330.282 442.835 332.327 443.25 334.343C446.227 334.345 449.175 334.927 451.929 336.055C449.244 336.026 446.582 336.556 444.113 337.613C447.757 349.203 458.6 361.14 488.539 366.213C491.719 351.976 489.848 337.076 483.246 324.067C474.271 306.425 436.928 295.66 436.928 295.66Z" fill="#85A3FF"/>
<path d="M498.93 415.88C498.415 410.922 497.758 405.977 496.998 401.058C495.482 391.189 493.467 381.403 490.959 371.738C489.781 367.205 488.336 362.746 486.632 358.384C486.716 357.589 486.755 356.789 486.748 355.989C486.748 355.023 486.748 354.07 486.748 353.105C486.748 351.186 486.632 349.241 486.465 347.361C486.165 343.575 485.553 339.819 484.636 336.133C484.083 334.008 483.452 331.909 482.821 329.797C482.821 329.78 482.814 329.764 482.802 329.752C482.79 329.74 482.773 329.733 482.756 329.733C482.739 329.733 482.723 329.74 482.711 329.752C482.699 329.764 482.692 329.78 482.692 329.797C483.684 333.476 484.42 337.219 484.894 341C485.432 344.727 485.772 348.479 485.911 352.242C485.911 353.272 485.911 354.302 485.911 355.332C485.911 355.77 485.911 356.199 485.911 356.62C484.453 353.066 482.78 349.605 480.902 346.254C477.849 340.9 474.406 335.779 470.6 330.93C470.598 330.364 470.515 329.8 470.356 329.256L469.931 327.248C469.622 325.883 469.274 324.518 468.901 323.166C468.154 320.449 467.175 317.835 466.325 315.156C466.325 315.139 466.318 315.123 466.306 315.111C466.294 315.099 466.278 315.092 466.261 315.092C466.244 315.092 466.227 315.099 466.215 315.111C466.203 315.123 466.196 315.139 466.196 315.156C466.982 317.809 467.484 320.552 468.115 323.256C468.424 324.543 468.708 325.921 469.004 327.26C469.158 327.93 469.3 328.6 469.429 329.269C469.434 329.316 469.434 329.364 469.429 329.411C468.218 327.891 466.995 326.385 465.72 324.904C460.003 318.195 453.744 312.027 447.435 305.872C446.649 305.112 445.864 304.378 445.065 303.631C445.001 303.567 444.911 303.631 444.975 303.734C451.002 310.031 456.938 316.392 462.565 323.05C463.904 324.638 465.218 326.239 466.506 327.853L464.471 326.501C462.72 325.368 460.956 324.26 459.14 323.243C457.324 322.226 455.496 321.221 453.629 320.294C451.761 319.367 449.662 318.569 447.808 317.5C447.718 317.5 447.654 317.577 447.731 317.616C449.624 318.494 451.453 319.506 453.204 320.642C455.019 321.723 456.848 322.818 458.638 323.951C460.428 325.084 462.166 326.166 463.904 327.299C465.372 328.252 466.802 329.282 468.308 330.158C471.781 334.615 474.985 339.277 477.902 344.116C479.718 347.161 481.373 350.298 482.859 353.517L481.791 353.053L479.048 351.843C477.284 351.057 475.519 350.297 473.755 349.525C470.394 348.07 466.982 346.718 463.686 345.121C461.83 344.247 460.036 343.249 458.316 342.133C458.239 342.133 458.174 342.211 458.239 342.262C464.381 346.486 471.27 349.473 478.056 352.474L481.005 353.761C481.816 354.122 482.628 354.521 483.465 354.83C485.514 359.346 487.24 364.002 488.628 368.763C491.283 378.309 493.432 387.989 495.067 397.762C496.779 407.548 497.951 417.386 498.84 427.276C498.955 428.564 499.071 429.748 499.213 430.972C499.213 431.074 499.254 431.172 499.326 431.245C499.399 431.317 499.497 431.358 499.599 431.358C499.702 431.358 499.8 431.317 499.873 431.245C499.945 431.172 499.986 431.074 499.986 430.972C499.947 425.898 499.432 420.94 498.93 415.88Z" fill="#282828"/>
<path d="M480.696 333.184C480.142 330.145 479.331 327.17 478.507 324.17C478.507 324.093 478.352 324.17 478.378 324.17C479.138 327.106 479.666 330.081 480.232 333.055C480.799 336.03 481.288 339.12 481.713 342.172H481.79C481.592 339.158 481.226 336.158 480.696 333.184Z" fill="#282828"/>
<path d="M467.781 341.438C465.701 340.07 463.528 338.848 461.278 337.781C460.184 337.215 459.076 336.674 457.969 336.146C456.862 335.618 455.651 335.128 454.518 334.562C454.502 334.56 454.487 334.564 454.473 334.571C454.46 334.579 454.449 334.59 454.442 334.604C454.435 334.618 454.432 334.634 454.434 334.649C454.436 334.665 454.443 334.679 454.454 334.691C455.548 335.231 456.578 335.901 457.66 336.481L460.982 338.309C463.171 339.481 465.322 340.781 467.627 341.734C467.666 341.751 467.709 341.753 467.75 341.739C467.79 341.725 467.823 341.696 467.842 341.658C467.862 341.621 467.867 341.577 467.855 341.536C467.844 341.495 467.817 341.46 467.781 341.438Z" fill="#282828"/>
<path opacity="0.1" d="M503.785 363.341C503.785 363.341 522.727 358.821 531.419 346.112C539.725 333.981 542.416 313.301 542.622 311.485C542.287 313.146 538.373 331.226 525.483 339.647C515.671 346.099 506.077 351.404 503.785 363.341Z" fill="#282828"/>
<path d="M521.271 330.621C517.902 333.717 515.478 337.704 514.279 342.12C514.279 342.12 514.279 342.12 514.344 342.12C515.736 337.807 518.142 333.89 521.362 330.699C521.426 330.66 521.336 330.557 521.271 330.621Z" fill="#282828"/>
<path d="M503.784 363.342C503.784 363.342 522.726 358.822 531.418 346.112C539.724 333.982 542.415 313.302 542.621 311.486C542.618 311.443 542.618 311.4 542.621 311.357C542.621 311.357 533.543 324.234 523.988 327.557C514.433 330.879 501.054 342.236 503.784 363.342Z" fill="#85A3FF"/>
<path d="M539.286 318.479C537.592 321.956 535.637 325.301 533.44 328.484C531.223 331.507 528.597 334.207 525.636 336.507C523.061 338.541 520.357 340.37 517.743 342.404L517.807 342.301C518.297 341.58 518.812 340.872 519.352 340.189C520.434 338.799 521.632 337.498 522.816 336.198C525.173 333.622 527.568 331.137 529.68 328.381C530.854 326.856 531.872 325.217 532.719 323.488C532.719 323.411 532.629 323.359 532.59 323.488C529.512 329.926 523.383 333.983 519.005 339.391C518.38 340.158 517.795 340.958 517.254 341.786C516.814 342.385 516.447 343.033 516.159 343.718C513.761 345.631 511.6 347.822 509.72 350.246C509.882 349.002 510.136 347.77 510.48 346.563C510.917 344.879 511.594 343.266 512.489 341.773C512.489 341.696 512.412 341.619 512.36 341.696C511.448 343.196 510.71 344.794 510.158 346.46C509.762 347.792 509.528 349.167 509.463 350.555C508.518 351.819 507.658 353.144 506.888 354.521L507.119 353.311C507.493 351.431 507.918 349.551 508.407 347.684C509.297 343.888 510.839 340.276 512.965 337.009C512.965 336.944 512.888 336.867 512.85 336.944C510.669 340.157 508.968 343.671 507.802 347.375C507.197 349.229 506.707 351.122 506.282 353.028C506.076 353.968 505.883 354.895 505.716 355.835C505.613 356.324 505.51 356.814 505.432 357.316C503.551 361.451 502.088 365.765 501.067 370.193C499.205 378.077 497.854 386.073 497.024 394.131C496.054 402.572 495.624 411.067 495.736 419.563C495.736 420.632 495.813 421.688 495.878 422.756C495.878 423.027 496.303 423.066 496.316 422.756C496.496 418.559 496.612 414.348 496.856 410.15C497.101 405.952 497.474 401.754 497.925 397.569C498.782 389.347 500.097 381.179 501.866 373.103C503.398 366.188 505.394 359.209 509.18 353.144C511.058 350.125 513.356 347.39 516.004 345.018C518.67 342.636 521.567 340.55 524.362 338.348C527.219 336.202 529.813 333.725 532.088 330.969C534.405 327.912 536.423 324.639 538.114 321.196C538.552 320.333 539.016 319.483 539.466 318.62C539.441 318.479 539.325 318.402 539.286 318.479Z" fill="#282828"/>
<path d="M536.015 321.246C534.776 323.796 533.37 326.261 531.805 328.625C531.805 328.689 531.805 328.741 531.882 328.689C533.509 326.348 534.939 323.876 536.157 321.298C536.196 321.22 536.054 321.169 536.015 321.246Z" fill="#282828"/>
<path d="M434.287 354.971C434.287 354.971 433.991 381.884 450.088 389.648C466.184 397.413 474.798 390.936 485.731 393.511C485.306 392.868 477.503 381.652 465.128 378.561C452.315 375.406 438.163 366.187 434.287 354.971Z" fill="#85A3FF"/>
<path opacity="0.1" d="M434.287 354.971C434.287 354.971 433.991 381.884 450.088 389.648C466.184 397.413 474.798 390.936 485.731 393.511C479.953 390.764 473.778 388.943 467.433 388.116C457.273 386.918 437.893 380.3 434.287 354.971Z" fill="#231F20"/>
<path d="M486.799 394.027C484.873 392.282 482.704 390.824 480.36 389.701C480.013 389.533 479.652 389.392 479.304 389.25C479.138 389.032 478.957 388.826 478.763 388.632C478.286 388.122 477.778 387.64 477.244 387.19C476.239 386.317 475.157 385.537 474.012 384.859C471.346 383.288 468.423 382.193 465.693 380.738C465.616 380.738 465.552 380.815 465.629 380.854C466.981 381.549 468.282 382.322 469.595 383.095C470.909 383.867 472.17 384.55 473.458 385.348C474.57 386.071 475.632 386.867 476.639 387.73C476.922 387.988 477.192 388.258 477.463 388.529C475.686 387.926 473.871 387.444 472.029 387.086C469.08 386.481 466.105 386.069 463.157 385.438C461.716 385.129 460.293 384.742 458.894 384.279C457.607 383.211 456.229 382.142 454.954 380.97C453.425 379.568 452.033 378.024 450.795 376.36C450.795 376.296 450.627 376.36 450.679 376.437C452.629 379.08 454.842 381.518 457.285 383.713C456.589 383.455 455.894 383.172 455.224 382.863C449.696 380.386 444.952 376.44 441.51 371.454C441.505 371.446 441.499 371.44 441.491 371.435C441.484 371.43 441.475 371.426 441.466 371.424C441.457 371.422 441.448 371.422 441.439 371.424C441.43 371.426 441.421 371.429 441.414 371.435C441.406 371.44 441.4 371.446 441.395 371.454C441.389 371.461 441.386 371.47 441.384 371.479C441.382 371.488 441.382 371.497 441.384 371.506C441.386 371.515 441.389 371.524 441.395 371.531C444.319 375.805 448.093 379.43 452.482 382.18C454.682 383.548 457.033 384.659 459.487 385.49C462.34 386.381 465.254 387.069 468.204 387.55C471.09 388.027 473.939 388.707 476.729 389.585C479.296 390.458 481.712 391.727 483.888 393.345C487.983 396.532 491.28 400.627 493.52 405.307C496.405 411.514 498.204 418.169 498.839 424.983C498.839 425.267 499.315 425.267 499.289 424.983C498.542 413.652 495.516 401.882 486.799 394.027Z" fill="#282828"/>
<path d="M468.114 385.259C467.278 384.004 466.146 382.974 464.818 382.259C463.289 381.463 461.946 380.353 460.878 379.001C460.867 378.985 460.851 378.975 460.833 378.971C460.815 378.967 460.796 378.971 460.781 378.981C460.766 378.992 460.755 379.008 460.751 379.026C460.748 379.044 460.751 379.063 460.762 379.078C461.726 380.312 462.904 381.363 464.238 382.181C465.697 382.961 466.984 384.025 468.024 385.31C468.024 385.375 468.166 385.323 468.114 385.259Z" fill="#282828"/>
<path d="M476.666 413.896L477.4 428.692L479.641 473.903H513.404L515.645 428.692L516.379 413.896H476.666Z" fill="#5774CD"/>
<path d="M476.666 413.896L477.4 428.692H515.645L516.379 413.896H476.666Z" fill="#282828"/>
<path d="M474.296 421.828H518.734V407.715H474.296V421.828Z" fill="#5774CD"/>
</g>
<path d="M16.6953 32L558.695 32V0L16.6953 0V16V32Z" fill="#D8E1FF"/>
<path d="M226.246 22L228.178 10.3636H232.326C233.228 10.3636 233.947 10.5284 234.485 10.858C235.027 11.1875 235.398 11.6364 235.599 12.2045C235.803 12.7727 235.847 13.4148 235.729 14.1307C235.608 14.8466 235.351 15.4905 234.957 16.0625C234.567 16.6307 234.046 17.0814 233.394 17.4148C232.743 17.7443 231.968 17.9091 231.07 17.9091H228.212L228.457 16.4205H231.15C231.722 16.4205 232.203 16.322 232.593 16.125C232.987 15.9242 233.296 15.6515 233.519 15.3068C233.743 14.9583 233.888 14.5663 233.957 14.1307C234.029 13.6875 234.01 13.2973 233.9 12.9602C233.79 12.6193 233.572 12.3523 233.246 12.1591C232.924 11.9659 232.474 11.8693 231.894 11.8693H229.69L228.002 22H226.246ZM240.582 22.1761C239.726 22.1761 239.018 21.9924 238.457 21.625C237.901 21.2538 237.511 20.733 237.287 20.0625C237.064 19.3883 237.028 18.5985 237.179 17.6932C237.327 16.7992 237.624 16.0114 238.071 15.3295C238.518 14.6477 239.075 14.1155 239.742 13.733C240.412 13.3504 241.153 13.1591 241.963 13.1591C242.456 13.1591 242.92 13.2405 243.355 13.4034C243.795 13.5663 244.168 13.822 244.475 14.1705C244.781 14.5189 244.993 14.9716 245.111 15.5284C245.232 16.0814 245.228 16.7538 245.1 17.5455L245.003 18.1477H238.06L238.259 16.875H243.531C243.611 16.428 243.59 16.0322 243.469 15.6875C243.348 15.339 243.139 15.0644 242.844 14.8636C242.552 14.6629 242.185 14.5625 241.742 14.5625C241.287 14.5625 240.863 14.6818 240.469 14.9205C240.075 15.1591 239.745 15.464 239.48 15.8352C239.219 16.2027 239.054 16.5814 238.986 16.9716L238.787 18.1364C238.689 18.7727 238.706 19.2841 238.838 19.6705C238.975 20.0568 239.213 20.3371 239.554 20.5114C239.895 20.6856 240.321 20.7727 240.832 20.7727C241.162 20.7727 241.467 20.7273 241.747 20.6364C242.031 20.5417 242.283 20.4034 242.503 20.2216C242.723 20.036 242.906 19.8049 243.054 19.5284L244.611 19.8182C244.403 20.2917 244.103 20.7064 243.713 21.0625C243.323 21.4148 242.863 21.6894 242.332 21.8864C241.806 22.0795 241.223 22.1761 240.582 22.1761ZM252.434 13.2727L252.213 14.6364H247.445L247.667 13.2727H252.434ZM249.286 11.1818H250.985L249.61 19.4375C249.557 19.767 249.567 20.0152 249.639 20.1818C249.711 20.3447 249.82 20.4564 249.968 20.517C250.12 20.5739 250.288 20.6023 250.474 20.6023C250.61 20.6023 250.73 20.5928 250.832 20.5739C250.934 20.5549 251.016 20.5398 251.076 20.5284L251.167 21.9318C251.053 21.9697 250.9 22.0076 250.707 22.0455C250.517 22.0871 250.286 22.1098 250.014 22.1136C249.567 22.1212 249.163 22.0417 248.803 21.875C248.444 21.7045 248.175 21.447 247.997 21.1023C247.819 20.7538 247.775 20.3163 247.866 19.7898L249.286 11.1818ZM269.464 14.1477H267.725C267.718 13.7689 267.648 13.4356 267.515 13.1477C267.383 12.8561 267.201 12.6117 266.97 12.4148C266.743 12.214 266.475 12.0625 266.169 11.9602C265.862 11.858 265.53 11.8068 265.174 11.8068C264.489 11.8068 263.845 11.9811 263.243 12.3295C262.64 12.678 262.127 13.1856 261.703 13.8523C261.279 14.5189 260.987 15.3314 260.828 16.2898C260.672 17.2216 260.691 18.0038 260.885 18.6364C261.078 19.2689 261.404 19.7481 261.862 20.0739C262.324 20.3958 262.879 20.5568 263.527 20.5568C263.905 20.5568 264.275 20.5076 264.635 20.4091C264.998 20.3068 265.335 20.1572 265.646 19.9602C265.957 19.7633 266.231 19.5227 266.47 19.2386C266.712 18.9508 266.902 18.6212 267.038 18.25H268.799C268.61 18.8258 268.343 19.3523 267.998 19.8295C267.654 20.3068 267.246 20.7197 266.777 21.0682C266.307 21.4167 265.792 21.6856 265.231 21.875C264.671 22.0644 264.078 22.1591 263.453 22.1591C262.426 22.1591 261.551 21.9148 260.828 21.4261C260.108 20.9337 259.591 20.233 259.277 19.3239C258.966 18.4148 258.913 17.3314 259.118 16.0739C259.326 14.8504 259.724 13.8011 260.311 12.9261C260.902 12.0473 261.621 11.375 262.47 10.9091C263.322 10.4394 264.243 10.2045 265.231 10.2045C265.856 10.2045 266.428 10.2936 266.947 10.4716C267.466 10.6458 267.913 10.9034 268.288 11.2443C268.667 11.5814 268.958 11.9943 269.163 12.483C269.368 12.9678 269.468 13.5227 269.464 14.1477ZM273.296 22.1932C272.743 22.1932 272.26 22.0909 271.847 21.8864C271.434 21.678 271.129 21.3769 270.932 20.983C270.735 20.589 270.684 20.1061 270.779 19.5341C270.862 19.0417 271.025 18.6364 271.267 18.3182C271.514 18 271.813 17.7481 272.165 17.5625C272.517 17.3731 272.9 17.2311 273.313 17.1364C273.726 17.0417 274.142 16.9716 274.563 16.9261C275.093 16.8655 275.523 16.8144 275.853 16.7727C276.186 16.7311 276.436 16.6667 276.603 16.5795C276.769 16.4886 276.87 16.3409 276.904 16.1364V16.0966C276.983 15.6042 276.911 15.2216 276.688 14.9489C276.468 14.6723 276.086 14.5341 275.54 14.5341C274.972 14.5341 274.495 14.6591 274.108 14.9091C273.726 15.1591 273.444 15.4394 273.262 15.75L271.739 15.3864C272.012 14.8561 272.358 14.428 272.779 14.1023C273.203 13.7727 273.667 13.5341 274.171 13.3864C274.675 13.2348 275.19 13.1591 275.716 13.1591C276.065 13.1591 276.427 13.2008 276.802 13.2841C277.177 13.3636 277.517 13.5114 277.824 13.7273C278.135 13.9432 278.366 14.2519 278.517 14.6534C278.669 15.0511 278.692 15.5682 278.586 16.2045L277.625 22H275.966L276.171 20.8068H276.103C275.959 21.0265 275.758 21.2424 275.5 21.4545C275.247 21.6667 274.936 21.8428 274.569 21.983C274.201 22.1231 273.777 22.1932 273.296 22.1932ZM273.875 20.8295C274.349 20.8295 274.767 20.7367 275.131 20.5511C275.499 20.3655 275.796 20.1231 276.023 19.8239C276.25 19.5208 276.392 19.197 276.449 18.8523L276.637 17.7273C276.565 17.7879 276.438 17.8428 276.256 17.892C276.078 17.9413 275.877 17.9848 275.654 18.0227C275.43 18.0606 275.211 18.0928 274.995 18.1193C274.783 18.1458 274.606 18.1705 274.466 18.1932C274.133 18.2348 273.821 18.3049 273.529 18.4034C273.241 18.5019 273 18.6439 272.807 18.8295C272.614 19.0114 272.493 19.2538 272.444 19.5568C272.375 19.9773 272.476 20.2955 272.745 20.5114C273.017 20.7235 273.394 20.8295 273.875 20.8295ZM280.528 22L281.983 13.2727H283.625L283.392 14.6591H283.483C283.718 14.1894 284.06 13.8201 284.511 13.5511C284.962 13.2784 285.443 13.142 285.954 13.142C286.064 13.142 286.189 13.1458 286.329 13.1534C286.469 13.1572 286.583 13.1667 286.67 13.1818L286.398 14.8068C286.333 14.7879 286.216 14.767 286.045 14.7443C285.875 14.7178 285.699 14.7045 285.517 14.7045C285.119 14.7045 284.75 14.7898 284.409 14.9602C284.068 15.1269 283.782 15.3598 283.551 15.6591C283.32 15.9545 283.17 16.2917 283.102 16.6705L282.227 22H280.528ZM290.766 22.1761C289.91 22.1761 289.202 21.9924 288.641 21.625C288.084 21.2538 287.694 20.733 287.471 20.0625C287.247 19.3883 287.211 18.5985 287.363 17.6932C287.511 16.7992 287.808 16.0114 288.255 15.3295C288.702 14.6477 289.259 14.1155 289.925 13.733C290.596 13.3504 291.336 13.1591 292.147 13.1591C292.639 13.1591 293.103 13.2405 293.539 13.4034C293.978 13.5663 294.351 13.822 294.658 14.1705C294.965 14.5189 295.177 14.9716 295.295 15.5284C295.416 16.0814 295.412 16.7538 295.283 17.5455L295.187 18.1477H288.243L288.442 16.875H293.715C293.795 16.428 293.774 16.0322 293.653 15.6875C293.531 15.339 293.323 15.0644 293.028 14.8636C292.736 14.6629 292.368 14.5625 291.925 14.5625C291.471 14.5625 291.047 14.6818 290.653 14.9205C290.259 15.1591 289.929 15.464 289.664 15.8352C289.403 16.2027 289.238 16.5814 289.17 16.9716L288.971 18.1364C288.872 18.7727 288.889 19.2841 289.022 19.6705C289.158 20.0568 289.397 20.3371 289.738 20.5114C290.079 20.6856 290.505 20.7727 291.016 20.7727C291.346 20.7727 291.651 20.7273 291.931 20.6364C292.215 20.5417 292.467 20.4034 292.687 20.2216C292.906 20.036 293.09 19.8049 293.238 19.5284L294.795 19.8182C294.586 20.2917 294.287 20.7064 293.897 21.0625C293.507 21.4148 293.047 21.6894 292.516 21.8864C291.99 22.0795 291.406 22.1761 290.766 22.1761ZM302.1 22L304.032 10.3636H305.788L304.947 15.4205H310.748L311.589 10.3636H313.35L311.418 22H309.657L310.498 16.9261H304.697L303.856 22H302.1ZM318.195 22.1761C317.365 22.1761 316.672 21.9867 316.115 21.608C315.558 21.2254 315.166 20.6913 314.939 20.0057C314.716 19.3163 314.678 18.5152 314.825 17.6023C314.969 16.7083 315.259 15.928 315.695 15.2614C316.134 14.5947 316.683 14.0777 317.342 13.7102C318.005 13.3428 318.742 13.1591 319.553 13.1591C320.382 13.1591 321.074 13.3504 321.627 13.733C322.183 14.1155 322.575 14.6515 322.803 15.3409C323.03 16.0303 323.07 16.8333 322.922 17.75C322.778 18.6364 322.485 19.4129 322.041 20.0795C321.602 20.7424 321.053 21.2576 320.394 21.625C319.735 21.9924 319.002 22.1761 318.195 22.1761ZM318.291 20.75C318.837 20.75 319.312 20.6061 319.717 20.3182C320.127 20.0303 320.46 19.6477 320.717 19.1705C320.975 18.6932 321.151 18.1705 321.246 17.6023C321.333 17.053 321.331 16.5511 321.24 16.0966C321.153 15.6383 320.964 15.2708 320.672 14.9943C320.38 14.7178 319.975 14.5795 319.456 14.5795C318.911 14.5795 318.431 14.7254 318.019 15.017C317.61 15.3049 317.276 15.6894 317.019 16.1705C316.765 16.6515 316.592 17.1761 316.502 17.7443C316.414 18.2898 316.414 18.7917 316.502 19.25C316.589 19.7045 316.778 20.0682 317.07 20.3409C317.361 20.6136 317.769 20.75 318.291 20.75ZM332.402 15.4034L330.816 15.6761C330.782 15.4754 330.712 15.286 330.606 15.108C330.504 14.9299 330.347 14.786 330.134 14.6761C329.922 14.5625 329.64 14.5057 329.288 14.5057C328.799 14.5057 328.371 14.6174 328.004 14.8409C327.64 15.0644 327.432 15.3485 327.379 15.6932C327.33 15.9735 327.396 16.2008 327.578 16.375C327.759 16.5455 328.08 16.6875 328.538 16.8011L329.879 17.1193C330.652 17.3049 331.205 17.5947 331.538 17.9886C331.875 18.3788 331.992 18.8864 331.89 19.5114C331.803 20.0303 331.576 20.4905 331.208 20.892C330.845 21.2936 330.379 21.608 329.811 21.8352C329.242 22.0625 328.61 22.1761 327.913 22.1761C326.92 22.1761 326.148 21.9659 325.595 21.5455C325.042 21.125 324.758 20.5303 324.742 19.7614L326.424 19.5114C326.455 19.9394 326.608 20.2633 326.884 20.483C327.165 20.6989 327.553 20.8068 328.049 20.8068C328.617 20.8106 329.093 20.6913 329.475 20.4489C329.858 20.2064 330.076 19.9129 330.129 19.5682C330.174 19.2992 330.114 19.0758 329.947 18.8977C329.784 18.7197 329.496 18.5833 329.083 18.4886L327.674 18.1648C326.886 17.9792 326.33 17.6799 326.004 17.267C325.678 16.8542 325.568 16.3352 325.674 15.7102C325.758 15.1989 325.973 14.7538 326.322 14.375C326.674 13.9924 327.119 13.6951 327.657 13.483C328.195 13.267 328.79 13.1591 329.441 13.1591C330.392 13.1591 331.106 13.3636 331.583 13.7727C332.061 14.178 332.333 14.7216 332.402 15.4034ZM333.438 25.2727L335.449 13.2727H337.108L336.875 14.6875H337.017C337.146 14.5057 337.32 14.2955 337.54 14.0568C337.764 13.8182 338.057 13.6098 338.421 13.4318C338.784 13.25 339.237 13.1591 339.779 13.1591C340.483 13.1591 341.08 13.3371 341.568 13.6932C342.057 14.0492 342.406 14.5625 342.614 15.233C342.822 15.9034 342.849 16.7102 342.693 17.6534C342.538 18.5966 342.247 19.4053 341.818 20.0795C341.39 20.75 340.872 21.267 340.262 21.6307C339.656 21.9905 338.998 22.1705 338.29 22.1705C337.76 22.1705 337.341 22.0814 337.034 21.9034C336.731 21.7254 336.506 21.517 336.358 21.2784C336.211 21.0398 336.099 20.8277 336.023 20.642H335.921L335.148 25.2727H333.438ZM336.387 17.6364C336.288 18.25 336.288 18.7879 336.387 19.25C336.485 19.7121 336.682 20.0739 336.978 20.3352C337.277 20.5928 337.671 20.7216 338.159 20.7216C338.667 20.7216 339.112 20.5871 339.495 20.3182C339.877 20.0455 340.193 19.6761 340.443 19.2102C340.697 18.7443 340.873 18.2197 340.972 17.6364C341.067 17.0606 341.065 16.5436 340.966 16.0852C340.872 15.6269 340.676 15.2652 340.381 15C340.086 14.7348 339.682 14.6023 339.171 14.6023C338.675 14.6023 338.235 14.7292 337.853 14.983C337.474 15.2367 337.159 15.5909 336.909 16.0455C336.659 16.5 336.485 17.0303 336.387 17.6364ZM344.508 22L345.963 13.2727H347.662L346.207 22H344.508ZM347.167 11.9091C346.872 11.9091 346.622 11.8106 346.417 11.6136C346.217 11.4129 346.124 11.1742 346.139 10.8977C346.154 10.6174 346.271 10.3788 346.491 10.1818C346.711 9.98106 346.967 9.88068 347.258 9.88068C347.554 9.88068 347.802 9.98106 348.003 10.1818C348.203 10.3788 348.298 10.6174 348.287 10.8977C348.271 11.1742 348.154 11.4129 347.934 11.6136C347.718 11.8106 347.463 11.9091 347.167 11.9091ZM354.661 13.2727L354.439 14.6364H349.672L349.894 13.2727H354.661ZM351.513 11.1818H353.212L351.837 19.4375C351.784 19.767 351.794 20.0152 351.866 20.1818C351.938 20.3447 352.047 20.4564 352.195 20.517C352.347 20.5739 352.515 20.6023 352.701 20.6023C352.837 20.6023 352.956 20.5928 353.059 20.5739C353.161 20.5549 353.242 20.5398 353.303 20.5284L353.394 21.9318C353.28 21.9697 353.127 22.0076 352.934 22.0455C352.744 22.0871 352.513 22.1098 352.241 22.1136C351.794 22.1212 351.39 22.0417 351.03 21.875C350.67 21.7045 350.402 21.447 350.223 21.1023C350.045 20.7538 350.002 20.3163 350.093 19.7898L351.513 11.1818ZM358.243 22.1932C357.69 22.1932 357.207 22.0909 356.794 21.8864C356.381 21.678 356.076 21.3769 355.879 20.983C355.682 20.589 355.631 20.1061 355.726 19.5341C355.809 19.0417 355.972 18.6364 356.214 18.3182C356.461 18 356.76 17.7481 357.112 17.5625C357.464 17.3731 357.847 17.2311 358.26 17.1364C358.673 17.0417 359.089 16.9716 359.51 16.9261C360.04 16.8655 360.47 16.8144 360.8 16.7727C361.133 16.7311 361.383 16.6667 361.55 16.5795C361.716 16.4886 361.817 16.3409 361.851 16.1364V16.0966C361.93 15.6042 361.858 15.2216 361.635 14.9489C361.415 14.6723 361.033 14.5341 360.487 14.5341C359.919 14.5341 359.442 14.6591 359.055 14.9091C358.673 15.1591 358.39 15.4394 358.209 15.75L356.686 15.3864C356.959 14.8561 357.305 14.428 357.726 14.1023C358.15 13.7727 358.614 13.5341 359.118 13.3864C359.622 13.2348 360.137 13.1591 360.663 13.1591C361.012 13.1591 361.373 13.2008 361.748 13.2841C362.123 13.3636 362.464 13.5114 362.771 13.7273C363.082 13.9432 363.313 14.2519 363.464 14.6534C363.616 15.0511 363.639 15.5682 363.533 16.2045L362.572 22H360.913L361.118 20.8068H361.05C360.906 21.0265 360.705 21.2424 360.447 21.4545C360.194 21.6667 359.883 21.8428 359.515 21.983C359.148 22.1231 358.724 22.1932 358.243 22.1932ZM358.822 20.8295C359.296 20.8295 359.714 20.7367 360.078 20.5511C360.445 20.3655 360.743 20.1231 360.97 19.8239C361.197 19.5208 361.339 19.197 361.396 18.8523L361.584 17.7273C361.512 17.7879 361.385 17.8428 361.203 17.892C361.025 17.9413 360.824 17.9848 360.601 18.0227C360.377 18.0606 360.158 18.0928 359.942 18.1193C359.73 18.1458 359.553 18.1705 359.413 18.1932C359.08 18.2348 358.767 18.3049 358.476 18.4034C358.188 18.5019 357.947 18.6439 357.754 18.8295C357.561 19.0114 357.44 19.2538 357.39 19.5568C357.322 19.9773 357.423 20.2955 357.692 20.5114C357.964 20.7235 358.341 20.8295 358.822 20.8295ZM369.106 10.3636L367.174 22H365.475L367.407 10.3636H369.106Z" fill="#5774CD"/>
<path d="M214.595 10H210.793V24H214.595V10Z" fill="#5774CD"/>
<path d="M219.695 18.9011V15.0986H205.695V18.9011H219.695Z" fill="#5774CD"/>
<defs>
<clipPath id="clip0_2716_491">
<rect width="558.938" height="541" fill="white" transform="translate(0 37)"/>
</clipPath>
</defs>
</svg>
