<svg width="32" height="28" viewBox="0 0 32 28" fill="none" xmlns="http://www.w3.org/2000/svg">
<path d="M8.70261 11.1181C9.43093 9.66872 10.5478 8.4503 11.9286 7.59893C13.3093 6.74756 14.8995 6.29676 16.5216 6.29688C18.8797 6.29688 20.8607 7.164 22.3754 8.57625L19.8667 11.0858C18.9594 10.2186 17.8061 9.77675 16.5216 9.77675C14.2422 9.77675 12.3129 11.3168 11.626 13.3844C11.451 13.9094 11.3512 14.4694 11.3512 15.0469C11.3512 15.6244 11.451 16.1844 11.626 16.7094C12.3137 18.7779 14.2422 20.317 16.5216 20.317C17.6985 20.317 18.7004 20.0064 19.4844 19.4814C19.9389 19.1821 20.328 18.7938 20.6282 18.3399C20.9283 17.886 21.1334 17.376 21.2309 16.8406H16.5216V13.4561H24.7624C24.8656 14.0284 24.9216 14.6251 24.9216 15.2455C24.9216 17.9108 23.9679 20.1543 22.3124 21.6768C20.8651 23.0138 18.8841 23.7969 16.5216 23.7969C15.3724 23.7973 14.2344 23.5713 13.1726 23.1318C12.1108 22.6922 11.146 22.0477 10.3334 21.2351C9.52079 20.4225 8.87629 19.4577 8.43672 18.3959C7.99716 17.3341 7.77115 16.1961 7.77161 15.0469C7.77161 13.6346 8.10936 12.2994 8.70261 11.1181Z" fill="#282828"/>
</svg>
