<svg width="17" height="17" viewBox="0 0 17 17" fill="none" xmlns="http://www.w3.org/2000/svg">
<path d="M7.93972 15.2106C8.11933 15.7634 8.90137 15.7634 9.08099 15.2106L10.2616 11.5771C10.3419 11.3299 10.5723 11.1625 10.8322 11.1625H14.6526C15.2338 11.1625 15.4755 10.4188 15.0053 10.0771L11.9145 7.83154C11.7042 7.67876 11.6162 7.40793 11.6965 7.16072L12.8771 3.52729C13.0567 2.9745 12.424 2.51482 11.9538 2.85646L8.86302 5.10205C8.65273 5.25484 8.36797 5.25484 8.15768 5.10205L5.0669 2.85646C4.59667 2.51482 3.96398 2.9745 4.14359 3.52728L5.32416 7.16072C5.40449 7.40793 5.31649 7.67875 5.1062 7.83154L2.01542 10.0771C1.54519 10.4188 1.78685 11.1625 2.36809 11.1625H6.18851C6.44844 11.1625 6.67882 11.3299 6.75914 11.5771L7.93972 15.2106Z" fill="#DE1E33"/>
</svg>
