<svg width="70" height="71" viewBox="0 0 70 71" fill="none" xmlns="http://www.w3.org/2000/svg">
<path d="M49.9825 43.4961C49.7151 45.5287 48.7169 47.3944 47.1743 48.7448C45.6318 50.0952 43.6505 50.8379 41.6004 50.8342C29.6902 50.8342 20 41.144 20 29.2338C19.9963 27.1837 20.7391 25.2024 22.0894 23.6599C23.4398 22.1174 25.3056 21.1191 27.3381 20.8517C27.8521 20.7889 28.3726 20.8941 28.8219 21.1514C29.2713 21.4088 29.6253 21.8046 29.8312 22.2797L32.9992 29.3523V29.3703C33.1569 29.734 33.222 30.1311 33.1887 30.5261C33.1555 30.921 33.0249 31.3016 32.8087 31.6339C32.7817 31.6744 32.7532 31.7119 32.7232 31.7494L29.6002 35.4514C30.7237 37.7345 33.1117 40.1015 35.4248 41.228L39.0758 38.1215C39.1117 38.0913 39.1493 38.0633 39.1883 38.0375C39.5203 37.8161 39.9022 37.6809 40.2995 37.6443C40.6968 37.6076 41.097 37.6706 41.4639 37.8275L41.4834 37.8365L48.55 41.003C49.026 41.2082 49.4227 41.5619 49.6809 42.0113C49.9391 42.4607 50.0449 42.9816 49.9825 43.4961Z" fill="#DE1E33"/>
</svg>
