<svg width="16" height="15" viewBox="0 0 16 15" fill="none" xmlns="http://www.w3.org/2000/svg">
<path fill-rule="evenodd" clip-rule="evenodd" d="M7.86625 0.965027C3.88972 0.965027 0.690552 4.14909 0.690552 8.10686C0.690552 11.2612 2.75356 13.9394 5.59394 14.8916C5.95273 14.9511 6.07232 14.7428 6.07232 14.5345C6.07232 14.356 6.07232 13.9096 6.07232 13.3144C4.06911 13.7608 3.65053 12.3622 3.65053 12.3622C3.32164 11.529 2.84326 11.3207 2.84326 11.3207C2.18549 10.8743 2.90306 10.8743 2.90306 10.8743C3.62063 10.9338 4.00931 11.6183 4.00931 11.6183C4.63718 12.7193 5.68364 12.392 6.10222 12.2134C6.16202 11.7373 6.34141 11.4397 6.5507 11.2612C4.96607 11.0826 3.29174 10.4577 3.29174 7.72001C3.29174 6.94631 3.56083 6.29164 4.03921 5.81552C3.97941 5.63698 3.71032 4.92279 4.09901 3.91103C4.09901 3.91103 4.69698 3.73249 6.07232 4.65497C6.6404 4.50619 7.26827 4.41691 7.86625 4.41691C8.46422 4.41691 9.09209 4.50619 9.66017 4.65497C11.0355 3.73249 11.6335 3.91103 11.6335 3.91103C12.0222 4.89304 11.783 5.60722 11.6933 5.81552C12.1418 6.3214 12.4408 6.94631 12.4408 7.72001C12.4408 10.4577 10.7664 11.0529 9.15189 11.2314C9.42098 11.4397 9.63027 11.8861 9.63027 12.5408C9.63027 13.493 9.63027 14.2667 9.63027 14.5048C9.63027 14.6833 9.74987 14.9214 10.1385 14.8618C12.9789 13.9394 15.0419 11.2612 15.0419 8.10686C15.0419 4.14909 11.8428 0.965027 7.86625 0.965027Z" fill="black"/>
</svg>
