<svg width="24" height="21" viewBox="0 0 24 21" fill="none" xmlns="http://www.w3.org/2000/svg">
<path fill-rule="evenodd" clip-rule="evenodd" d="M8.7422 4.62967C8.7422 4.17988 8.94637 3.7485 9.3098 3.43045C9.67323 3.1124 10.1661 2.93372 10.6801 2.93372H12.618C13.132 2.93372 13.6249 3.1124 13.9883 3.43045C14.3518 3.7485 14.5559 4.17988 14.5559 4.62967V8.02158H18.4318C18.9457 8.02158 19.4386 8.20026 19.8021 8.51832C20.1655 8.83637 20.3697 9.26774 20.3697 9.71754V11.4135C20.3697 11.8633 20.1655 12.2947 19.8021 12.6127C19.4386 12.9308 18.9457 13.1094 18.4318 13.1094H14.5559V16.5014C14.5559 16.9512 14.3518 17.3825 13.9883 17.7006C13.6249 18.0186 13.132 18.1973 12.618 18.1973H10.6801C10.1661 18.1973 9.67323 18.0186 9.3098 17.7006C8.94637 17.3825 8.7422 16.9512 8.7422 16.5014V13.1094H4.86638C4.35241 13.1094 3.8595 12.9308 3.49607 12.6127C3.13264 12.2947 2.92847 11.8633 2.92847 11.4135V9.71754C2.92847 9.26774 3.13264 8.83637 3.49607 8.51832C3.8595 8.20026 4.35241 8.02158 4.86638 8.02158H8.7422V4.62967Z" fill="#243A8E"/>
</svg>
