<svg width="13" height="11" viewBox="0 0 13 11" fill="none" xmlns="http://www.w3.org/2000/svg">
<path d="M12.3771 2.10549C11.913 2.31075 11.4232 2.43904 10.9077 2.51601C11.4232 2.20812 11.8357 1.72064 12.0162 1.13053C11.5264 1.41275 10.985 1.61801 10.3921 1.7463C9.92808 1.25881 9.25784 0.950928 8.53603 0.950928C7.14399 0.950928 6.00973 2.07984 6.00973 3.46532C6.00973 3.67057 6.0355 3.85017 6.08706 4.02977C3.99899 3.92714 2.11715 2.92652 0.853992 1.3871C0.647763 1.77195 0.518869 2.18246 0.518869 2.64429C0.518869 3.51663 0.957107 4.28634 1.65313 4.74817C1.24067 4.72251 0.853992 4.61988 0.493091 4.44028V4.46594C0.493091 5.69748 1.36957 6.72376 2.52961 6.95467C2.32338 7.00599 2.09137 7.03164 1.85936 7.03164C1.70469 7.03164 1.52424 7.00599 1.36957 6.98033C1.70469 7.98095 2.63272 8.72501 3.7412 8.72501C2.86473 9.39209 1.78202 9.8026 0.596205 9.8026C0.389976 9.8026 0.183747 9.8026 0.0032959 9.77695C1.13756 10.4953 2.45227 10.9059 3.89587 10.9059C8.56181 10.9059 11.1139 7.0573 11.1139 3.72189C11.1139 3.61926 11.1139 3.49097 11.1139 3.38835C11.6037 3.0548 12.0419 2.61863 12.3771 2.10549Z" fill="black"/>
</svg>
