<svg width="35" height="28" viewBox="0 0 35 28" fill="none" xmlns="http://www.w3.org/2000/svg">
<path d="M2.36328 5.77376C2.36328 4.88971 2.71447 4.04186 3.33959 3.41674C3.96471 2.79162 4.81256 2.44043 5.69661 2.44043H29.0299C29.914 2.44043 30.7618 2.79162 31.387 3.41674C32.0121 4.04186 32.3633 4.88971 32.3633 5.77376V22.4404C32.3633 23.3245 32.0121 24.1723 31.387 24.7975C30.7618 25.4226 29.914 25.7738 29.0299 25.7738H5.69661C4.81256 25.7738 3.96471 25.4226 3.33959 24.7975C2.71447 24.1723 2.36328 23.3245 2.36328 22.4404V5.77376Z" stroke="#DE1E33" stroke-width="3.39394" stroke-linecap="round" stroke-linejoin="round"/>
<path d="M2.36328 5.77344L17.3633 15.7734L32.3633 5.77344" stroke="#DE1E33" stroke-width="3.39394" stroke-linecap="round" stroke-linejoin="round"/>
</svg>
