<svg width="32" height="28" viewBox="0 0 32 28" fill="none" xmlns="http://www.w3.org/2000/svg">
<g clip-path="url(#clip0_792_3938)">
<path d="M22.4854 20.6296H19.6238V16.1455C19.6238 15.0762 19.602 13.7001 18.1325 13.7001C16.6405 13.7001 16.4126 14.8636 16.4126 16.0666V20.6296H13.551V11.4086H16.2999V12.6655H16.337C16.721 11.9408 17.6551 11.1759 19.0505 11.1759C21.95 11.1759 22.4862 13.0842 22.4862 15.5682L22.4854 20.6296ZM10.3189 10.1468C10.1006 10.1471 9.88428 10.1043 9.6825 10.0209C9.48072 9.9374 9.2974 9.81491 9.14306 9.66043C8.98873 9.50594 8.86642 9.32251 8.78315 9.12064C8.69988 8.91878 8.65728 8.70246 8.65781 8.48409C8.65797 8.15539 8.7556 7.83412 8.93835 7.56091C9.12109 7.2877 9.38075 7.07481 9.68449 6.94917C9.98823 6.82353 10.3224 6.79078 10.6448 6.85506C10.9671 6.91935 11.2632 7.07777 11.4955 7.31031C11.7278 7.54285 11.8859 7.83905 11.9499 8.16146C12.0139 8.48387 11.9808 8.81801 11.8548 9.12163C11.7289 9.42524 11.5158 9.6847 11.2424 9.86718C10.969 10.0497 10.6476 10.147 10.3189 10.1468ZM11.7538 20.6296H8.88407V11.4086H11.7538V20.6296ZM23.9171 4.1618H7.44761C6.65932 4.1618 6.02161 4.78502 6.02161 5.55399V22.0943C6.02161 22.8641 6.65932 23.4865 7.44761 23.4865H23.9146C24.7021 23.4865 25.3463 22.8641 25.3463 22.0943V5.55399C25.3463 4.78502 24.7021 4.1618 23.9146 4.1618H23.9171Z" fill="#282828"/>
</g>
<defs>
<clipPath id="clip0_792_3938">
<rect width="19.3247" height="19.3247" fill="white" transform="translate(6.02161 4.1618)"/>
</clipPath>
</defs>
</svg>
