<svg width="16" height="16" viewBox="0 0 16 16" fill="none" xmlns="http://www.w3.org/2000/svg">
<path d="M7.63111 2.31036C9.63404 2.31036 9.87123 2.31783 10.6625 2.35374C11.1382 2.35953 11.6094 2.44648 12.0556 2.61079C12.3792 2.73499 12.6731 2.92526 12.9183 3.16933C13.1635 3.41341 13.3547 3.70589 13.4795 4.02794C13.6446 4.47205 13.7319 4.94103 13.7378 5.41452C13.7735 6.20203 13.7813 6.4381 13.7813 8.43158C13.7813 10.4251 13.7738 10.6611 13.7378 11.4486C13.7319 11.9221 13.6446 12.3911 13.4795 12.8352C13.3547 13.1573 13.1635 13.4497 12.9183 13.6938C12.6731 13.9379 12.3792 14.1282 12.0556 14.2524C11.6094 14.4167 11.1382 14.5036 10.6625 14.5094C9.87159 14.545 9.63439 14.5528 7.63111 14.5528C5.62783 14.5528 5.39063 14.5453 4.59975 14.5094C4.12402 14.5036 3.65281 14.4167 3.2066 14.2524C2.88302 14.1282 2.58915 13.9379 2.34392 13.6938C2.09868 13.4497 1.90752 13.1573 1.78272 12.8352C1.61763 12.3911 1.53028 11.9221 1.52446 11.4486C1.48873 10.6611 1.48088 10.4251 1.48088 8.43158C1.48088 6.4381 1.48838 6.20203 1.52446 5.41452C1.53028 4.94103 1.61763 4.47205 1.78272 4.02794C1.90752 3.70589 2.09868 3.41341 2.34392 3.16933C2.58915 2.92526 2.88302 2.73499 3.2066 2.61079C3.65281 2.44648 4.12402 2.35953 4.59975 2.35374C5.39099 2.31819 5.62818 2.31036 7.63111 2.31036ZM7.63111 0.965027C5.59496 0.965027 5.33848 0.97356 4.53831 1.00982C3.9157 1.02215 3.29969 1.13948 2.71649 1.35682C2.21621 1.54443 1.76308 1.83842 1.38871 2.21828C1.0067 2.59101 0.711066 3.04226 0.522457 3.54051C0.304082 4.12095 0.186196 4.73405 0.173812 5.35373C0.13809 6.14941 0.129517 6.40468 0.129517 8.43122C0.129517 10.4578 0.13809 10.713 0.174526 11.5094C0.18691 12.1291 0.304797 12.7422 0.523172 13.3226C0.711572 13.8208 1.00696 14.2721 1.38871 14.6449C1.76328 15.0248 2.21667 15.3188 2.71721 15.5063C3.3004 15.7237 3.91641 15.841 4.53902 15.8533C5.33919 15.8889 5.59461 15.8981 7.63182 15.8981C9.66904 15.8981 9.92445 15.8896 10.7246 15.8533C11.3472 15.841 11.9632 15.7237 12.5464 15.5063C13.0446 15.3141 13.497 15.0206 13.8747 14.6445C14.2523 14.2683 14.547 13.8179 14.7398 13.3219C14.9581 12.7415 15.076 12.1284 15.0884 11.5087C15.1241 10.713 15.1327 10.4578 15.1327 8.43122C15.1327 6.40468 15.1241 6.14941 15.0877 5.35302C15.0753 4.73334 14.9574 4.12024 14.739 3.5398C14.5506 3.04162 14.2553 2.59037 13.8735 2.21757C13.4989 1.83762 13.0456 1.54362 12.545 1.35611C11.9618 1.13877 11.3458 1.02144 10.7232 1.00911C9.92374 0.97356 9.66726 0.965027 7.63111 0.965027Z" fill="black"/>
<path d="M7.63338 4.59894C6.87147 4.59894 6.12668 4.8238 5.49318 5.2451C4.85968 5.66639 4.36593 6.26519 4.07436 6.96577C3.7828 7.66636 3.70651 8.43726 3.85515 9.181C4.00379 9.92473 4.37068 10.6079 4.90943 11.1441C5.44817 11.6803 6.13458 12.0455 6.88184 12.1934C7.6291 12.3413 8.40366 12.2654 9.10757 11.9752C9.81147 11.685 10.4131 11.1936 10.8364 10.5631C11.2597 9.93259 11.4856 9.19131 11.4856 8.43301C11.4856 7.41615 11.0798 6.44094 10.3573 5.72191C9.63489 5.00288 8.65506 4.59894 7.63338 4.59894ZM7.63338 10.9217C7.13882 10.9217 6.65537 10.7758 6.24416 10.5023C5.83295 10.2288 5.51245 9.84016 5.32319 9.3854C5.13393 8.93065 5.08441 8.43025 5.18089 7.94748C5.27738 7.46471 5.51553 7.02126 5.86523 6.67321C6.21494 6.32515 6.66049 6.08812 7.14555 5.9921C7.6306 5.89607 8.13338 5.94535 8.59029 6.13372C9.0472 6.32208 9.43773 6.64107 9.71249 7.05034C9.98725 7.45961 10.1339 7.94078 10.1339 8.43301C10.1339 9.09306 9.87046 9.72608 9.40152 10.1928C8.93258 10.6595 8.29656 10.9217 7.63338 10.9217Z" fill="black"/>
<path d="M11.6369 5.34242C12.134 5.34242 12.5371 4.9413 12.5371 4.44648C12.5371 3.95166 12.134 3.55054 11.6369 3.55054C11.1397 3.55054 10.7367 3.95166 10.7367 4.44648C10.7367 4.9413 11.1397 5.34242 11.6369 5.34242Z" fill="black"/>
</svg>
