<svg width="31" height="28" viewBox="0 0 31 28" fill="none" xmlns="http://www.w3.org/2000/svg">
<path fill-rule="evenodd" clip-rule="evenodd" d="M16.319 3.25239C16.217 3.20129 16.1045 3.17468 15.9905 3.17468C15.8764 3.17468 15.7639 3.20129 15.6619 3.25239L6.87661 7.64506C6.7511 7.7045 6.64504 7.79836 6.57078 7.91572C6.49652 8.03308 6.45711 8.16911 6.45715 8.30799V23.708H4.99048V25.1747H12.3238V17.8413H19.6571V25.1747H26.9905V23.708H25.5238V8.30799C25.5238 8.16911 25.4844 8.03308 25.4102 7.91572C25.3359 7.79836 25.2299 7.7045 25.1043 7.64506L16.319 3.25239ZM15.2571 10.508V7.57466H16.7238V10.508H19.6571V11.9747H16.7238V14.908H15.2571V11.9747H12.3238V10.508H15.2571Z" fill="#282828"/>
</svg>
