<svg width="29" height="28" viewBox="0 0 29 28" fill="none" xmlns="http://www.w3.org/2000/svg">
<path d="M20.8033 6.1879C17.1586 2.60273 11.2495 2.60273 7.60479 6.1879C6.73945 7.03331 6.05184 8.04317 5.58239 9.15813C5.11293 10.2731 4.87109 11.4706 4.87109 12.6804C4.87109 13.8902 5.11293 15.0877 5.58239 16.2027C6.05184 17.3176 6.73945 18.3275 7.60479 19.1729L14.2035 25.6654L20.8033 19.1729C21.6686 18.3275 22.3562 17.3176 22.8257 16.2027C23.2951 15.0877 23.537 13.8902 23.537 12.6804C23.537 11.4706 23.2951 10.2731 22.8257 9.15813C22.3562 8.04317 21.6686 7.03331 20.8033 6.1879ZM14.2035 15.7487C13.4241 15.7487 12.6926 15.4454 12.1408 14.8947C11.5945 14.3473 11.2877 13.6055 11.2877 12.8321C11.2877 12.0587 11.5945 11.3169 12.1408 10.7694C12.6915 10.2187 13.4241 9.9154 14.2035 9.9154C14.9828 9.9154 15.7155 10.2187 16.2661 10.7694C16.8124 11.3169 17.1192 12.0587 17.1192 12.8321C17.1192 13.6055 16.8124 14.3473 16.2661 14.8947C15.7155 15.4454 14.9828 15.7487 14.2035 15.7487Z" fill="#282828"/>
</svg>
