<svg width="69" height="70" viewBox="0 0 69 70" fill="none" xmlns="http://www.w3.org/2000/svg">
<path d="M36.5364 32.906C41.8388 38.172 38.299 44.4432 38.8453 53.7006C39.6538 67.2845 32.7271 71.9096 27.1551 68.9379C21.5832 65.9662 22.5228 57.4808 17.6355 53.0597L17.5918 53.016L17.5481 52.9723C12.8429 48.369 4.39392 49.8112 1.12359 44.4286C-2.14674 39.046 2.03403 31.8571 15.6398 31.8426C24.9118 31.8353 30.9863 27.9167 36.5364 32.906Z" fill="#243A8E" fill-opacity="0.08"/>
<path d="M53.4563 41.2383C46.5515 42.5348 41.635 47.2036 42.4799 51.6466C43.3248 56.0896 49.5887 58.6534 56.4935 57.3496C63.3984 56.0459 68.3075 51.3844 67.4699 46.9341C66.6323 42.4838 60.3539 39.9346 53.4563 41.2383Z" fill="#243A8E" fill-opacity="0.08"/>
<path d="M25.5336 17.2031C24.645 24.1735 20.2894 29.3522 15.7954 28.784C11.3014 28.2159 8.38073 22.0977 9.24019 15.1346C10.0997 8.1715 14.4844 2.97829 18.9783 3.55369C23.4723 4.1291 26.4003 10.2328 25.5336 17.2031Z" fill="#243A8E" fill-opacity="0.08"/>
<path d="M51.5332 19.8027C45.5898 24.2166 43.077 30.9102 45.9321 34.7413C48.7873 38.5725 55.9034 38.0991 61.8468 33.6779C67.7902 29.2568 70.303 22.5705 67.4552 18.7393C64.6073 14.9081 57.4839 15.3816 51.5332 19.8027Z" fill="#243A8E" fill-opacity="0.08"/>
<path d="M48.7141 17.1427C44.6644 23.341 38.1383 26.2472 34.1469 23.6396C30.1555 21.0321 30.1992 13.8796 34.2561 7.68129C38.3131 1.48296 44.8319 -1.42319 48.8233 1.19162C52.8147 3.80642 52.771 10.9443 48.7141 17.1427Z" fill="#243A8E" fill-opacity="0.08"/>
</svg>
