<?xml version="1.0" encoding="utf-8"?>
<!-- Generator: Adobe Illustrator 25.0.1, SVG Export Plug-In . SVG Version: 6.00 Build 0)  -->
<svg version="1.1" id="Layer_1" xmlns="http://www.w3.org/2000/svg" xmlns:xlink="http://www.w3.org/1999/xlink" x="0px" y="0px"
	 viewBox="0 0 500 208" style="enable-background:new 0 0 500 208;" xml:space="preserve">
<style type="text/css">
	.st0{fill:#FFFFFF;}
</style>
<path class="st0" d="M399,0h1.8l1.5,2.2l0.8,2l1.5,6.5l1,8.5L406,25v4.2l0.8-0.2l2.5-4.8l3.8-6l2-2.8l2-2.5l2.5-2.5l1.5-0.8l1.5,0.2
	l1.5,2.5l1.2,4.8l1,6.8l1,11.2l0.2,5v4.2l1,1l5.5,2.8l5.8,3.2l5.5,3.5l3,2.2l2.2,2l2.2,3l3.5,6.8l2.5,3.5l2,1.8l4.5,2.5L470,79
	l3.8,1.8l15,7l5.8,3l3.8,2.5l1.8,1.5v3.5l-2,3.2l-3,3.5l-2,2l-2,1.8l-1.8,2.2l-2.2,2.5l-3,2.8l-4,2.5l-2.8,1.2l-3.2,1l-4,0.5h-5.5
	l-9.8-0.5l-10.8-0.8l-4.5-0.2H429l-3.8,0.5l-3,1.2l-2,1.8l-1,1.2l-2,3.5l-1.5,4l-1.2,6.2l-0.2,3v4.8l0.5,4.5l1,5.5l1.2,4.8l1.8,5
	l2,5l2,4l2.5,4.8l2.8,4.5l3.2,4.8l5,6.2l-0.8,0.2l-2-1.5l-3.5-3l-2.8-2.2l-4-3.8l-6.2-6.2l-2.2-2.8l-3.2-4l-3.5-5.2l-2.5-4.2
	l-3.2-6.8l-1.8-4.8l-1.2-4.5l-1-5l-0.5-4.8V131l0.8-6l1.2-4.8l1.8-4l1.5-2.2l2-1.5l2.8-1l2-0.2H422l3-0.8l2.8-1.5l1.5-1.2l2-2.5
	l2-3.2l1.8-3.2l2-2.2l0.8-1.5v-2l-2.2-2.5L432,88l-3-2.8l-1.2-2.2l-1.2-4.8l-1-4l-1.5-3l-2.2-2.8l-3-2.5l-5-3.5l-3-1.8l0.2-4.5v-5.8
	l-0.5-4l-0.5-1.8l-2,0.5l-3.2,2.8l-2.2,2.5l-1.2,1.8h-0.5v0.5h-0.5l-0.2-1.2v-8l-0.8-3.5l-1-2l-1.5,0.2l-2.5,1.5l-3.8,3.5l-3,3.2
	l-3.8,5l-3.2,5.2l-6.8,2.5l-5,2.2L364,64l-4.2,2.5l-4.2,2.8l-4.5,3.2l-4,3.2l-2.8,2.2l-2,2l-2,1.8l-3,3.2l-2.8,3l-2.8,3.5l-2.5,3.2
	l-2.5,3.8l-3,5l-2.8,5l-3.5,8l-2.2,6.2l-2.2,8l-1,5l-1.2,7.8l-0.5-0.8v-8l0.8-9.2l1-7l1.5-7.2l2-7l2.2-6.2l3-6.8L324,85l3-4.8
	l2.2-3.2l2.2-3l3.2-4l2.8-3l6.2-6.2l2-1.8l4-3.2l3.8-2.8l4.5-3l5-3l6.8-3.5l6-2.5l1.8-5.8l2.2-6.2l4-9l2.5-4.8l3-4.8l3.2-4.5l3.8-4
	L399,0z"/>
<path class="st0" d="M9.5,134h25l4,0.2l4,1l3,1.2L48,138l2.5,2l2.5,2.8l2.2,3.8l1.5,4.5l0.5,3.5v5.5l-0.8,4l-1.2,3.2l-1.8,3l-2.8,3
	l-2.2,1.8l-3,1.8l-1.2,0.2l3.2,7l4,8.5l3.2,6.8l2.8,6v1.5l-0.2,0.2l-8.2,0.2H38.8l-1.2-0.2l-2-4l-3-6.8L28,185.8l-2.8-6.2l-0.5-0.2
	h-3.2l-1.5,0.2l-0.2,27l-0.5,0.5l-4.5,0.2H5.5L0.8,207L0,206v-71l1-0.8L9.5,134z M20,150.8l-0.2,1.8V164l3.2,0.2h7.2l3-0.5l2.5-1.5
	l1.5-2l0.5-1.8v-2l-0.8-2.2l-1.8-2l-2.5-1.2l-1-0.2H20z"/>
<path class="st0" d="M237.5,134h14l1,1l1.2,4.5l4,17l4.8,20.2l0.2,2l1,0.2l0.8-4l2.5-10.8l4-17.5l2.5-10.8l0.8-1.5l0.2-0.2l2.5-0.2
	h14.8l2.5,0.2v1.8l-2,7.2l-5,16.8l-5,17l-4.5,15l-3.8,12.8l-1,2l-0.2,0.2l-6.2,0.2h-11L253,207l-0.8-1l-2.2-7.2l-4.2-14.5l-10-34
	l-4-13.8l-0.2-1.8l0.5-0.5L237.5,134z"/>
<path class="st0" d="M199.5,151.8l6.2,0.5l4.5,1l4,1.5l3.2,1.8l2.2,1.8l2.5,2.2l1.8,2.5l1.2,2.8l0.5,1.5v39.2l-0.5,0.5l-5.5,0.2H208
	l-1.2-0.2l-0.5-1l-0.2-3.2l-2,1.8l-2.2,1.8l-3.2,1.2l-2,0.5h-8l-4-1l-3-1.2l-2.5-1.5l-2-2l-1.5-2.5l-1-2.5l-0.5-4l0.2-4.2l1-3.2
	l1.8-2.8l2.2-2.5l3.2-2l3.2-1.2l3-0.8l2-0.2L206,176v-3l-0.8-1.8L204,170l-1.5-0.8l-1-0.2H199l-2.5,0.8L195,171l-1.2,1.2h-2.2
	l-15.2-2l-1.2-0.5l-0.2-1.8l0.8-3l1.5-3l2.2-2.8l2.2-2l3.2-2l4-1.8l3.8-1l3.5-0.5L199.5,151.8z M198.5,186l-2,0.5l-1.8,1l-1,2
	l0.2,2.2l1.2,1.8l2.8,1l2.8-0.2l2.5-1l1.8-1.5l1-2l0.2-1v-2.2l-0.5-0.5H198.5z"/>
<path class="st0" d="M315.5,152h6.5l4.2,0.8l3.8,1.5l3,1.8l2.8,2.2l2,2l2.5,3.5l2,4l1.8,4.8l1.2,5.5l0.5,3v2.8l-0.8,1l-1.2,0.2h-32
	l1,2.5l1.8,2l2.8,1.2l3.8,0.5l4.2-0.2l4-1.2l2.2-1.2l1.2-0.8l1.2,0.2l2.2,2.8l2.5,3.5l3.2,4.5l0.2,1.8l-1.8,1.8l-3.5,2.2l-3.5,1.5
	l-4,1.2l-3.8,0.8h-9.2l-3.8-0.8l-4.2-1.2l-3.5-1.5l-3.2-2.2l-2.5-2.2l-2.2-2.5l-2-3.2l-1.5-3.8l-1-3.2l-0.8-5.2v-4.8l0.8-5.2
	l1.5-4.5l2-3.8l2.5-3.2l2.5-2.5l3.2-2.2l4-2l4-1.2L315.5,152z M317.2,168.8l-2,0.8l-2,1.8l-1.2,2.5v0.8l1,0.2h11.8l0.2-1.2l-1.8-2.8
	l-2-1.5l-1.8-0.5H317.2z"/>
<path class="st0" d="M85.5,152h6.8l4,0.8l3.8,1.5l3,1.8l2.8,2.2l2.8,3l2.2,3.5l2.2,4.8l1.5,5l1,4.8l0.2,2.2v2.2l-1,1l-1.2,0.2
	L82,185.2l0.8,2.2l1.8,2l2.8,1.2l3.8,0.5l4.2-0.2l4-1.2l2.2-1.2l1.2-0.8l1.2,0.2l2.2,2.8l3,4.2l2.8,4l0.2,1.5l-1.8,1.8l-3.5,2.2
	l-3.5,1.5l-4,1.2l-3.8,0.8h-9.2l-3.8-0.8l-4.2-1.2l-3.5-1.5l-3.2-2.2l-2.5-2.2l-2.2-2.5l-2-3.2l-1.5-3.8l-1.2-4.5l-0.5-4.5v-3.2
	l0.5-5l1.2-4.5l2-4l1.8-2.8l2.8-3l2-1.8l3.5-2.2l3.2-1.5l3.5-1L85.5,152z M87.2,168.8l-2,0.8l-2,1.8l-1.2,2.5v0.8l1.5,0.2h11.2
	l0.2-1.2l-1.8-2.8l-2-1.5l-1.8-0.5H87.2z"/>
<path class="st0" d="M357,76.2h16.5l1,0.5l0.2,1.2v13l-0.2,3.2H388l4.2,0.2l0.5,1.5v6.5l-0.2,10.2L392,113l-17.2,0.2v15.5l-0.2,2
	l-1.2,0.5H357l-1-0.5l-0.2-0.8v-17l-0.5,0.2l-17-0.2l-0.5-1V95.2l0.5-0.8l4.8-0.2h7.8l5,0.2V77l0.2-0.5L357,76.2z"/>
<path class="st0" d="M356.2,138.2h17l0.8,0.5l0.2,13.8l9.5,0.2l1,0.8v14.2l-1,0.8l-9.5,0.2V185l0.2,2.2l1.2,2l1.2,0.5l5.8,0.5
	l0.5,0.5l0.2,1.2v13l-0.5,1.2l-2,0.5l-3.2,0.2h-7l-4.5-0.5l-3.8-1l-2.5-1.2l-1.8-1.5l-1.8-2.8l-1-3l-0.2-3.8v-24.8h-6.8l-1-1.2V154
	l1.2-1.2l6.2-0.2l0.2-13l0.5-1L356.2,138.2z"/>
<path class="st0" d="M123.2,134h16l1.5,0.5v72.2l-0.2,0.2l-6.5,0.2h-11.2l-1.2-0.5l-0.2-0.5v-71.5l0.5-0.5L123.2,134z"/>
<path class="st0" d="M150.2,152.8h17.2l1,0.8v52.8L168,207l-4,0.2h-13l-1.8-0.2l-0.5-1.8v-51l0.8-1.2L150.2,152.8z"/>
<path class="st0" d="M156,128.8h5.2l3.2,1l2.2,1.5v0.5h0.5l1.8,2.5l0.8,1.8l0.2,1.2v4.5l-0.5,2.2l-1.8,3l-2,1.8l-2.5,1.2l-3.5,0.8
	l-3.8-0.2l-3.5-1.2l-2.2-1.8l-1.8-2.5l-1-2.8l-0.2-1.5v-2l0.8-3.5l1.5-2.5l1-1.2l2.5-1.8L156,128.8z"/>
</svg>
